<?xml version="1.0" encoding="UTF-8"?>
<!DOCTYPE svg PUBLIC "-//W3C//DTD SVG 1.1//EN" "http://www.w3.org/Graphics/SVG/1.1/DTD/svg11.dtd">
<svg xmlns="http://www.w3.org/2000/svg" xml:space="preserve" width="74px" height="61px" version="1.1" style="shape-rendering:geometricPrecision; text-rendering:geometricPrecision; image-rendering:optimizeQuality; fill-rule:evenodd; clip-rule:evenodd" viewBox="0 0 4.5 3.68" xmlns:xlink="http://www.w3.org/1999/xlink">
 <g>
  <path fill="#E41A4C" d="M0.61 0l-0.61 0 0 0.41 0.61 0 0.41 0 0.62 0 0 -0.41 -0.62 0 -0.41 0zm1.44 0l0 0.41 1.84 0 0 0.41 -1.23 0c-0.22,0 -0.41,0.18 -0.41,0.41l0 1.23c0,0.22 0.19,0.41 0.41,0.41l1.23 0 0 0.4 -2.87 0 0 -1.84 -0.41 0 0 1.84c0,0.11 0.05,0.22 0.12,0.29 0.08,0.08 0.18,0.12 0.29,0.12l2.87 0c0.22,0 0.41,-0.18 0.41,-0.41l0 -0.46c0.06,-0.04 0.11,-0.09 0.15,-0.15 0.03,-0.06 0.05,-0.13 0.05,-0.2l0 -1.23c0,-0.07 -0.02,-0.14 -0.05,-0.21 -0.04,-0.06 -0.09,-0.11 -0.15,-0.14l0 -0.47c0,-0.23 -0.19,-0.41 -0.41,-0.41l-1.84 0zm0.61 1.23l1.43 0 0 1.23 -1.43 0 0 -1.23zm0.61 0.31c-0.08,0 -0.15,0.03 -0.21,0.09 -0.06,0.05 -0.09,0.13 -0.09,0.21 0,0.08 0.03,0.16 0.09,0.22 0.06,0.06 0.13,0.09 0.21,0.09 0.09,0 0.16,-0.03 0.22,-0.09 0.06,-0.06 0.09,-0.14 0.09,-0.22 0,-0.08 -0.03,-0.16 -0.09,-0.21 -0.06,-0.06 -0.13,-0.09 -0.22,-0.09z"/>
 </g>
</svg>
