<?xml version="1.0" encoding="UTF-8"?>
<!DOCTYPE svg PUBLIC "-//W3C//DTD SVG 1.1//EN" "http://www.w3.org/Graphics/SVG/1.1/DTD/svg11.dtd">
<svg xmlns="http://www.w3.org/2000/svg" xml:space="preserve" width="44px" height="50px" version="1.1" style="shape-rendering:geometricPrecision; text-rendering:geometricPrecision; image-rendering:optimizeQuality; fill-rule:evenodd; clip-rule:evenodd" viewBox="0 0 7.95 9.08" xmlns:xlink="http://www.w3.org/1999/xlink">
 <g>
  <path fill="#E41A4C" d="M3.21 0.08c0.02,-0.02 0.05,-0.04 0.09,-0.06 0.03,-0.01 0.07,-0.02 0.11,-0.02 0.03,0 0.07,0.01 0.11,0.02 0.03,0.02 0.06,0.04 0.09,0.06l1.7 1.71c0.05,0.05 0.08,0.12 0.08,0.2 0,0.07 -0.03,0.15 -0.08,0.2 -0.05,0.05 -0.13,0.08 -0.2,0.08 -0.08,0 -0.15,-0.03 -0.2,-0.08l-1.22 -1.22 0 4.42c0,0.08 -0.03,0.15 -0.08,0.2 -0.06,0.06 -0.13,0.09 -0.2,0.09 -0.08,0 -0.15,-0.03 -0.2,-0.09 -0.06,-0.05 -0.09,-0.12 -0.09,-0.2l0 -4.42 -1.22 1.22c-0.05,0.05 -0.12,0.08 -0.2,0.08 -0.07,0 -0.14,-0.03 -0.2,-0.08 -0.05,-0.05 -0.08,-0.13 -0.08,-0.2 0,-0.08 0.03,-0.15 0.08,-0.2l1.71 -1.71zm-1.92 8.44c0.1,0.17 0.24,0.31 0.41,0.41 0.18,0.1 0.37,0.15 0.57,0.15l3.41 0c0.6,0 1.18,-0.24 1.6,-0.66 0.43,-0.43 0.67,-1 0.67,-1.61l0 -1.98c0,-0.08 -0.03,-0.15 -0.09,-0.2 -0.05,-0.06 -0.12,-0.09 -0.2,-0.09 -0.07,0 -0.14,0.03 -0.2,0.09 -0.05,0.05 -0.08,0.12 -0.08,0.2l0 1.98c0,0.45 -0.18,0.89 -0.5,1.21 -0.32,0.32 -0.75,0.5 -1.2,0.5l-4.39 0zm-0.72 -4.83c0,-0.07 -0.03,-0.15 -0.09,-0.2 -0.05,-0.05 -0.12,-0.08 -0.2,-0.08 -0.07,0 -0.14,0.03 -0.2,0.08 -0.05,0.05 -0.08,0.13 -0.08,0.2l0 3.12c0,0.3 0.12,0.59 0.33,0.81 0.22,0.21 0.5,0.33 0.81,0.33l4.54 0c0.3,0 0.59,-0.12 0.8,-0.33 0.21,-0.22 0.33,-0.51 0.33,-0.81l0 -3.12c0,-0.07 -0.03,-0.15 -0.08,-0.2 -0.05,-0.05 -0.13,-0.08 -0.2,-0.08 -0.08,0 -0.15,0.03 -0.2,0.08 -0.06,0.05 -0.09,0.13 -0.09,0.2l0 3.12c0,0.15 -0.05,0.3 -0.16,0.4 -0.11,0.11 -0.25,0.17 -0.4,0.17l-4.54 0c-0.16,0 -0.3,-0.06 -0.41,-0.17 -0.1,-0.1 -0.16,-0.25 -0.16,-0.4l0 -3.12z"/>
 </g>
</svg>
