<?xml version="1.0" encoding="UTF-8"?>
<!DOCTYPE svg PUBLIC "-//W3C//DTD SVG 1.1//EN" "http://www.w3.org/Graphics/SVG/1.1/DTD/svg11.dtd">
<svg xmlns="http://www.w3.org/2000/svg" xml:space="preserve" width="167px" height="167px" version="1.1" style="shape-rendering:geometricPrecision; text-rendering:geometricPrecision; image-rendering:optimizeQuality; fill-rule:nonzero; clip-rule:evenodd" viewBox="0 0 12.03 12.03" xmlns:xlink="http://www.w3.org/1999/xlink">
 <g>
  <path fill="#E41A4C" d="M12.03 6.01c0,3.33 -2.69,6.02 -6.02,6.02 -3.32,0 -6.01,-2.69 -6.01,-6.02 0,-3.32 2.69,-6.01 6.01,-6.01 3.33,0 6.02,2.69 6.02,6.01z"/>
  <path fill="white" d="M8.17 7.32l-0.7 -0.69c-0.14,-0.14 -0.37,-0.14 -0.51,0.01l-0.35 0.35c-0.02,-0.01 -0.05,-0.03 -0.07,-0.04 -0.22,-0.12 -0.52,-0.29 -0.84,-0.61 -0.32,-0.32 -0.49,-0.62 -0.62,-0.85 -0.01,-0.02 -0.02,-0.04 -0.03,-0.06l0.23 -0.24 0.12 -0.12c0.14,-0.14 0.15,-0.37 0.01,-0.51l-0.7 -0.69c-0.14,-0.14 -0.37,-0.14 -0.51,0.01l-0.2 0.19 0.01 0.01c-0.07,0.08 -0.12,0.18 -0.16,0.28 -0.04,0.1 -0.07,0.2 -0.08,0.29 -0.09,0.77 0.26,1.46 1.21,2.41 1.3,1.31 2.36,1.21 2.4,1.2 0.1,-0.01 0.2,-0.03 0.29,-0.07 0.11,-0.04 0.2,-0.1 0.29,-0.16l0 0 0.2 -0.19c0.14,-0.15 0.15,-0.38 0.01,-0.52z"/>
 </g>
</svg>
