<?xml version="1.0" encoding="UTF-8"?>
<svg
  xmlns="http://www.w3.org/2000/svg"
  width="22"
  height="22"
  viewBox="0 0 22 22"
>
  <g transform="translate(1.833252 20.166748) scale(1 -1)">
    <path
      d="
        M 2.979167 17.416748
        C 1.333818 17.416748 0 16.082930 0 14.437582
        L 0 8.479248
        C 0 6.833899 1.333819 5.500082 2.979167 5.500082
        L 5.034999 5.500082
        C 4.962825 4.728757 4.313629 4.125082 3.523437 4.125082
        L 1.145833 4.125082
        C 0.766138 4.125082 0.458333 3.817277 0.458333 3.437582
        L 0.458333 0.687582
        C 0.458333 0.307886 0.766138 0.000082 1.145833 0.000082
        L 3.895833 0.000082
        C 6.806834 0.000082 9.166666 2.359916 9.166666 5.270915
        L 9.166666 5.500082
        L 10.770833 5.500082
        C 12.318592 5.500082 13.590680 6.680369 13.736135 8.189981
        L 17.292124 6.056389
        C 17.504513 5.928955 17.769032 5.925618 17.984570 6.047653
        C 18.200108 6.169688 18.333340 6.398229 18.333340 6.645915
        L 18.333340 16.270914
        C 18.333340 16.518602 18.200108 16.747143 17.984570 16.869177
        C 17.769032 16.991213 17.504513 16.987875 17.292124 16.860441
        L 13.736135 14.726849
        C 13.590680 16.236462 12.318592 17.416748 10.770833 17.416748
        Z

        M 13.749999 13.131655
        L 13.749999 9.785175
        L 16.958340 7.860171
        L 16.958340 15.056659
        Z

        M 3.895833 1.375082
        L 1.833333 1.375082
        L 1.833333 2.750082
        L 3.523437 2.750082
        C 5.073298 2.750082 6.338529 3.968730 6.413183 5.500082
        L 7.791667 5.500082
        L 7.791667 5.270915
        C 7.791667 3.119307 6.047442 1.375082 3.895833 1.375082
        Z

        M 1.375000 14.437582
        C 1.375000 15.323538 2.093210 16.041748 2.979167 16.041748
        L 10.770833 16.041748
        C 11.656790 16.041748 12.374999 15.323538 12.374999 14.437582
        L 12.374999 8.479248
        C 12.374999 7.593291 11.656790 6.875082 10.770833 6.875082
        L 2.979167 6.875082
        C 2.093210 6.875082 1.375000 7.593291 1.375000 8.479248
        Z
      "
      fill="#000000"
      fill-rule="evenodd"
      stroke="#000000"
      stroke-linejoin="round"
      stroke-width="0.76"
    />
  </g>
</svg>
