<svg width="22" height="22" viewBox="0 0 22 22" fill="none" xmlns="http://www.w3.org/2000/svg">
<path fill-rule="evenodd" clip-rule="evenodd" d="M4.8112 2.75C3.16585 2.75 1.83203 4.08382 1.83203 5.72917V11.6875C1.83203 13.3328 3.16585 14.6667 4.8112 14.6667H6.86703C6.79486 15.438 6.14566 16.0417 5.35547 16.0417H2.97786C2.59817 16.0417 2.29036 16.3495 2.29036 16.7292V19.4792C2.29036 19.8589 2.59817 20.1667 2.97786 20.1667H5.72786C8.63887 20.1667 10.9987 17.8068 10.9987 14.8958V14.6667H12.6029C14.1506 14.6667 15.4227 13.4864 15.5682 11.9768L19.1242 14.1104C19.3365 14.2378 19.6011 14.2411 19.8166 14.1191C20.0321 13.9971 20.1654 13.7685 20.1654 13.5208V3.89583C20.1654 3.64815 20.0321 3.41961 19.8166 3.29757C19.6011 3.17554 19.3365 3.17887 19.1242 3.30631L15.5682 5.4399C15.4227 3.93029 14.1506 2.75 12.6029 2.75H4.8112ZM15.582 7.03509V10.3816L18.7904 12.3066V5.11009L15.582 7.03509ZM5.72786 18.7917H3.66536V17.4167H5.35547C6.90533 17.4167 8.17056 16.198 8.24521 14.6667H9.6237V14.8958C9.6237 17.0474 7.87947 18.7917 5.72786 18.7917ZM3.20703 5.72917C3.20703 4.84321 3.92524 4.125 4.8112 4.125H12.6029C13.4888 4.125 14.207 4.84321 14.207 5.72917V11.6875C14.207 12.5735 13.4888 13.2917 12.6029 13.2917H4.8112C3.92524 13.2917 3.20703 12.5735 3.20703 11.6875V5.72917Z" fill="#6D7A8A"/>
</svg>
