<?xml version="1.0" encoding="UTF-8"?>
<!DOCTYPE svg PUBLIC "-//W3C//DTD SVG 1.1//EN" "http://www.w3.org/Graphics/SVG/1.1/DTD/svg11.dtd">
<!-- Creator: CorelDRAW 2019 (64-Bit) -->
<svg xmlns="http://www.w3.org/2000/svg" xml:space="preserve" width="120px" height="122px" version="1.1" style="shape-rendering:geometricPrecision; text-rendering:geometricPrecision; image-rendering:optimizeQuality; fill-rule:evenodd; clip-rule:evenodd"
viewBox="0 0 19.84 20.19"
 xmlns:xlink="http://www.w3.org/1999/xlink">
 <defs>
  <style type="text/css">
   <![CDATA[
    .fil0 {fill:#6D7A8A;fill-rule:nonzero}
   ]]>
  </style>
 </defs>
 <g id="Слой_x0020_1">
  <metadata id="CorelCorpID_0Corel-Layer"/>
  <path class="fil0" d="M19.84 10.1c0,2.78 -1.11,5.31 -2.91,7.13 -1.79,1.83 -4.27,2.96 -7.01,2.96 -2.74,0 -5.22,-1.13 -7.02,-2.96 -1.79,-1.82 -2.9,-4.35 -2.9,-7.13 0,-2.79 1.11,-5.31 2.9,-7.14 1.8,-1.83 4.28,-2.96 7.02,-2.96 2.74,0 5.22,1.13 7.01,2.96 1.8,1.83 2.91,4.35 2.91,7.14zm-5.19 -1.78c-2.63,-2.68 -6.91,-2.68 -9.54,0 -0.2,0.21 -0.2,0.54 0,0.76 0.21,0.2 0.54,0.2 0.75,0 2.22,-2.26 5.82,-2.26 8.04,0 0.1,0.1 0.24,0.15 0.37,0.15 0.14,0 0.27,-0.05 0.38,-0.15 0.2,-0.21 0.2,-0.55 0,-0.76zm-4.77 5.56c0.39,0 0.7,-0.32 0.7,-0.71 0,-0.39 -0.31,-0.71 -0.7,-0.71 -0.39,0 -0.7,0.32 -0.7,0.71 0,0.39 0.31,0.71 0.7,0.71zm-1.9 -2.64c-0.2,0.21 -0.2,0.55 0,0.76 0.21,0.21 0.54,0.21 0.75,0 0.63,-0.65 1.67,-0.65 2.3,0 0.1,0.1 0.24,0.16 0.37,0.16 0.14,0 0.27,-0.06 0.37,-0.16 0.21,-0.21 0.21,-0.55 0,-0.76 -1.04,-1.06 -2.74,-1.06 -3.79,0zm-1.42 -1.45c-0.2,0.21 -0.2,0.55 0,0.76 0.21,0.21 0.54,0.21 0.75,0 1.42,-1.45 3.73,-1.45 5.15,0 0.1,0.1 0.24,0.16 0.37,0.16 0.13,0 0.27,-0.06 0.37,-0.16 0.21,-0.21 0.21,-0.55 0,-0.76 -1.83,-1.86 -4.81,-1.86 -6.64,0zm10 7.08c1.71,-1.73 2.76,-4.12 2.76,-6.77 0,-2.65 -1.05,-5.05 -2.76,-6.78 -1.7,-1.73 -4.05,-2.8 -6.64,-2.8 -2.6,0 -4.95,1.07 -6.65,2.8 -1.7,1.73 -2.75,4.13 -2.75,6.78 0,2.65 1.05,5.04 2.75,6.77 1.7,1.74 4.05,2.81 6.65,2.81 2.59,0 4.94,-1.07 6.64,-2.81z"/>
 </g>
</svg>
