<svg width="26" height="26" viewBox="0 0 26 26" fill="none" xmlns="http://www.w3.org/2000/svg">
<path fill-rule="evenodd" clip-rule="evenodd" d="M0 5C0 3.89543 0.895431 3 2 3H24C25.1046 3 26 3.89543 26 5C26 6.10457 25.1046 7 24 7H2C0.89543 7 0 6.10457 0 5ZM0 12.9199C0 11.8154 0.895431 10.9199 2 10.9199H24C25.1046 10.9199 26 11.8154 26 12.9199C26 14.0245 25.1046 14.9199 24 14.9199H2C0.89543 14.9199 0 14.0245 0 12.9199ZM2 18.8398C0.895431 18.8398 0 19.7353 0 20.8398C0 21.9444 0.89543 22.8398 2 22.8398H24C25.1046 22.8398 26 21.9444 26 20.8398C26 19.7353 25.1046 18.8398 24 18.8398H2Z" fill="#298BFF"/>
</svg>
