<svg version="1.2" baseProfile="tiny-ps" xmlns="http://www.w3.org/2000/svg" viewBox="0 0 26 26" width="26" height="26">
	<title>BurgerSelected-svg</title>
	<style>
		tspan { white-space:pre }
		.shp0 { fill: #e41a4c } 
	</style>
	<path id="Layer" fill-rule="evenodd" class="shp0" d="M0 5C0 3.9 0.9 3 2 3L24 3C25.1 3 26 3.9 26 5C26 6.1 25.1 7 24 7L2 7C0.9 7 0 6.1 0 5ZM0 12.92C0 11.82 0.9 10.92 2 10.92L24 10.92C25.1 10.92 26 11.82 26 12.92C26 14.02 25.1 14.92 24 14.92L2 14.92C0.9 14.92 0 14.02 0 12.92ZM24 18.84C25.1 18.84 26 19.74 26 20.84C26 21.94 25.1 22.84 24 22.84L2 22.84C0.9 22.84 0 21.94 0 20.84C0 19.74 0.9 18.84 2 18.84L24 18.84Z" />
</svg>