<?xml version="1.0" encoding="UTF-8"?>
<!DOCTYPE svg PUBLIC "-//W3C//DTD SVG 1.1//EN" "http://www.w3.org/Graphics/SVG/1.1/DTD/svg11.dtd">
<svg xmlns="http://www.w3.org/2000/svg" xml:space="preserve" width="501px" height="500px" version="1.1" style="shape-rendering:geometricPrecision; text-rendering:geometricPrecision; image-rendering:optimizeQuality; fill-rule:nonzero; clip-rule:evenodd" viewBox="0 0 115.22 114.98" xmlns:xlink="http://www.w3.org/1999/xlink">
 <g>
   <path fill="#F7A5BD" d="M4.1 69l1.92 0c3.17,0 5.75,2.57 5.75,5.75l0 32.57c0,3.17 -2.58,5.75 -5.75,5.75l-1.92 0c-1.05,0 -1.91,-0.86 -1.91,-1.92l0 -40.23c0,-1.06 0.86,-1.92 1.91,-1.92z"/>
   <path fill="#FCE8EB" d="M11.76 95.63l17.25 -9.19c0.91,-0.63 1.51,-1.62 1.64,-2.72l4.1 -33.78 -7.66 -0.96 -3.83 32.07 -11.5 5.81 0 8.77z"/>
   <path fill="#F7A5BC" d="M75.39 22.22l-2.63 20.9c-0.12,1.01 -0.64,1.93 -1.45,2.56 -0.8,0.62 -1.83,0.9 -2.84,0.77l-58.91 -7.41c-1.01,-0.13 -1.93,-0.65 -2.56,-1.46 -0.62,-0.8 -0.9,-1.82 -0.77,-2.83l1.43 -11.5 39.26 4.94c0.5,0.07 1.01,-0.07 1.42,-0.38l9.4 -7.24c0.41,-0.31 0.92,-0.45 1.42,-0.39l16.23 2.04z"/>
   <path fill="#FA7F9E" d="M59.22 20.18c-0.51,-0.06 -1.02,0.08 -1.42,0.39l-0.17 0.13 12.01 1.52 -2.62 20.9c-0.17,1.23 -0.92,2.31 -2.02,2.89l3.47 0.44c1.01,0.13 2.03,-0.15 2.84,-0.77 0.81,-0.63 1.33,-1.55 1.45,-2.56l2.63 -20.9 -16.17 -2.04z"/>
   <path fill="#FCE8EC" d="M94.99 16.26l-7.3 6.76c-0.42,0.39 -0.99,0.57 -1.55,0.5l-2.95 -0.37 -7.8 -0.97 -16.17 -2.03c-0.5,-0.07 -1.01,0.07 -1.42,0.38l-9.46 7.34c-0.4,0.31 -0.91,0.45 -1.42,0.38l-39.26 -4.9 -3.83 -0.48c-1.04,-0.14 -1.78,-1.1 -1.64,-2.15l2.16 -17.09c0.06,-0.51 0.32,-0.97 0.72,-1.29 0.4,-0.32 0.92,-0.46 1.43,-0.39l87.42 11.01c0.73,0.1 1.35,0.6 1.58,1.31 0.23,0.71 0.03,1.48 -0.51,1.99l0 0z"/>
   <path fill="#FCCBD7" d="M93.92 12.96l-87.42 -11.02c-0.57,-0.05 -1.13,0.14 -1.54,0.54l83.21 10.48c0.74,0.09 1.35,0.6 1.58,1.31 0.23,0.7 0.03,1.48 -0.51,1.99l-7.28 6.76 1.23 0.15 2.95 0.37c0.56,0.07 1.13,-0.11 1.55,-0.5l7.3 -6.8c0.53,-0.51 0.72,-1.28 0.49,-1.98 -0.23,-0.69 -0.84,-1.2 -1.56,-1.3l0 0z"/>
   <path fill="#FCE8EC" d="M83.93 31.01c-0.92,7.36 -5.92,12.78 -11.17,12.11l2.63 -20.9 7.8 0.97c0.85,2.52 1.1,5.19 0.74,7.82z"/>
   <path fill="#FCCBD7" d="M45.67 43.58l-2.79 4.17c-1.21,1.81 -3.34,2.79 -5.5,2.51l-3.37 -0.42 -8.59 -1.09c-2.16,-0.28 -3.98,-1.77 -4.69,-3.83l-1.67 -4.66 20.68 2.57 5.93 0.75z"/>
   <path fill="#F7A5BD" d="M45.67 43.58l-2.79 4.17c-1.21,1.81 -3.34,2.79 -5.5,2.51l-3.37 -0.42c1.02,-0.51 1.9,-1.28 2.54,-2.24l3.18 -4.77 5.94 0.75z"/>
   <path fill="#FCE8EC" d="M82.65 113.07c16.93,0 30.66,-13.73 30.66,-30.66 0,-16.93 -13.73,-30.65 -30.66,-30.65 -16.93,0 -30.65,13.72 -30.65,30.65 0,16.93 13.72,30.66 30.65,30.66z"/>
   <path fill="#FCCBD7" d="M82.65 51.76c-0.96,0 -1.92,0.05 -2.87,0.15 15.66,1.57 27.59,14.76 27.59,30.5 0,15.75 -11.93,28.93 -27.59,30.5 0.95,0.1 1.91,0.15 2.87,0.16 16.93,0 30.65,-13.73 30.65,-30.66 0,-16.93 -13.72,-30.65 -30.65,-30.65z"/>
   <path fill="#FCE8EC" d="M82.65 97.74c2.12,0 3.83,-1.72 3.83,-3.83 0,-2.12 -1.71,-3.83 -3.83,-3.83 -2.12,0 -3.83,1.71 -3.83,3.83 0,2.11 1.71,3.83 3.83,3.83z"/>
   <path fill="white" d="M7.93 111.15l0 -40.23c0,-0.51 0.2,-0.99 0.56,-1.34 -0.77,-0.38 -1.62,-0.57 -2.47,-0.58l-1.92 0c-1.06,0 -1.92,0.86 -1.92,1.92l0 40.23c0,1.06 0.86,1.92 1.92,1.92l1.92 0c0.85,-0.01 1.7,-0.21 2.47,-0.58 -0.36,-0.36 -0.56,-0.84 -0.56,-1.34z"/>
   <path fill="white" d="M6.23 34.75c-0.13,1.01 0.15,2.03 0.77,2.83 0.63,0.81 1.55,1.33 2.56,1.46l9.58 1.19 1.67 4.73c0.71,2.06 2.53,3.55 4.69,3.83l1.78 0.23 -3.83 32.07 -5.94 2.89 0 2.88 11.59 -5.75 3.84 -32.07 -1.79 -0.23c-2.16,-0.28 -3.98,-1.77 -4.69,-3.83l-1.65 -4.72 -9.58 -1.18c-1.01,-0.13 -1.93,-0.65 -2.56,-1.46 -0.62,-0.8 -0.9,-1.82 -0.77,-2.84l1.44 -11.49 -3.84 -0.48c-0.74,-0.1 -1.35,-0.63 -1.57,-1.34 -0.05,-0.25 -0.05,-0.5 0,-0.75l2.17 -17.09c0.06,-0.44 0.28,-0.84 0.61,-1.13l-4.21 -0.55c-0.51,-0.07 -1.02,0.07 -1.42,0.38 -0.41,0.32 -0.67,0.78 -0.73,1.28l-2.16 17.11c-0.06,0.25 -0.06,0.5 0,0.75 0.2,0.75 0.84,1.3 1.61,1.4l3.83 0.48 -1.4 11.4z"/>
   <polygon fill="white" points="0.27,95.82 4.1,95.82 4.1,111.15 0.27,111.15 "/>
   <path fill="#E41A4C" d="M2.19 105.4c-1.06,0 -1.92,-0.86 -1.92,-1.91 0,-1.06 0.86,-1.92 1.92,-1.92 1.06,0 1.91,0.86 1.91,1.92 0,1.05 -0.85,1.91 -1.91,1.91zm80.46 -32.57c-6.63,0.02 -12.86,3.14 -16.86,8.43 -0.41,0.55 -0.49,1.28 -0.22,1.9 0.26,0.63 0.85,1.07 1.53,1.15 0.68,0.09 1.35,-0.2 1.76,-0.75 3.26,-4.34 8.37,-6.9 13.79,-6.9 5.43,0 10.54,2.56 13.8,6.9 0.36,0.48 0.93,0.77 1.53,0.77 0.41,0 0.82,-0.14 1.15,-0.39 0.85,-0.63 1.02,-1.83 0.38,-2.68 -3.99,-5.29 -10.23,-8.41 -16.86,-8.43zm-22.98 3.83c-0.64,0.85 -0.47,2.05 0.38,2.69 0.33,0.25 0.73,0.38 1.15,0.38 0.6,0 1.17,-0.28 1.53,-0.77 4.7,-6.27 12.09,-9.96 19.93,-9.96 7.83,0 15.22,3.69 19.92,9.96 0.64,0.85 1.84,1.02 2.68,0.39 0.85,-0.64 1.02,-1.84 0.39,-2.69 -5.43,-7.23 -13.95,-11.49 -22.99,-11.49 -9.05,0 -17.57,4.26 -22.99,11.49l0 0zm22.99 3.84c-4.23,0 -8.2,1.98 -10.73,5.36 -0.41,0.55 -0.5,1.27 -0.23,1.9 0.27,0.63 0.85,1.07 1.53,1.15 0.68,0.08 1.35,-0.2 1.76,-0.75 1.81,-2.41 4.65,-3.83 7.67,-3.83 3.01,0 5.85,1.42 7.66,3.83 0.36,0.48 0.93,0.77 1.53,0.77 0.42,0 0.82,-0.14 1.15,-0.39 0.85,-0.63 1.02,-1.83 0.38,-2.68 -2.53,-3.38 -6.5,-5.36 -10.72,-5.36zm-0.01 7.66c-3.17,0 -5.74,2.57 -5.74,5.75 0,3.17 2.57,5.74 5.74,5.74 3.18,0 5.75,-2.57 5.75,-5.74 0,-3.18 -2.57,-5.75 -5.75,-5.75zm0 7.66c-1.05,0 -1.91,-0.85 -1.91,-1.91 0,-1.06 0.86,-1.92 1.91,-1.92 1.06,0 1.92,0.86 1.92,1.92 0,1.06 -0.86,1.91 -1.92,1.91zm0 -45.98c-17.98,0 -32.57,14.58 -32.57,32.57 0,17.99 14.59,32.57 32.57,32.57 17.99,0 32.57,-14.58 32.57,-32.57 0,-8.64 -3.43,-16.92 -9.54,-23.03 -6.1,-6.11 -14.39,-9.54 -23.03,-9.54l0 0zm0 61.31c-15.87,0 -28.73,-12.87 -28.73,-28.74 0,-15.87 12.86,-28.74 28.73,-28.74 15.88,0 28.74,12.87 28.74,28.74 0,15.87 -12.86,28.74 -28.74,28.74zm-14.4 -62.8c0.24,0.02 0.48,0.02 0.72,0 1.27,0 2.51,-0.43 3.51,-1.21 0.72,-0.56 1.29,-1.29 1.67,-2.12 5.74,-0.35 10.73,-6.15 11.68,-13.8 0.24,-1.91 0.2,-3.85 -0.13,-5.75l0.19 0c1.14,0.14 2.27,-0.23 3.1,-1.01l7.32 -6.8c1.08,-1.02 1.48,-2.57 1.01,-3.99 -0.46,-1.41 -1.7,-2.42 -3.17,-2.6l-87.4 -11.04c-1.02,-0.13 -2.04,0.15 -2.85,0.78 -0.8,0.63 -1.32,1.56 -1.44,2.57l-2.19 17.11c-0.26,2.1 1.22,4.01 3.32,4.27l1.91 0.25 -1.19 9.58c-0.39,3.15 1.84,6.02 4.99,6.42l8.33 1.05 1.26 3.61c1,2.7 3.43,4.62 6.29,4.96l-3.6 29.18 -7.9 3.94 0 -9c0,-4.23 -3.43,-7.66 -7.66,-7.66l-1.92 0c-2.11,0 -3.83,1.71 -3.83,3.83l0 24.9c0,1.06 0.86,1.92 1.92,1.92 1.06,0 1.91,-0.86 1.91,-1.92l0 -24.9 1.92 0c2.12,0 3.83,1.71 3.83,3.83l0 32.57c0,2.12 -1.71,3.83 -3.83,3.83l-1.92 0c0,-1.06 -0.85,-1.92 -1.91,-1.92 -1.06,0 -1.92,0.86 -1.92,1.92 0,2.12 1.72,3.83 3.83,3.83l1.92 0c4.23,0 7.66,-3.43 7.66,-7.66l0 -10.54 16.31 -8.62 0.17 0c1.38,-0.94 2.28,-2.43 2.47,-4.08l3.83 -31.86 0.67 0c0.33,0.02 0.65,0.02 0.98,0 2.55,-0.01 4.93,-1.29 6.34,-3.41l2.15 -3.18 21.65 2.72zm13.79 -17.57c-0.65,5.19 -3.68,9.41 -7.09,10.29l2.11 -16.71 4.64 0.58c0.47,1.91 0.59,3.89 0.34,5.84zm-75.77 -26.92l87.42 11 -7.21 6.8 -10.72 -1.34 -16.29 -2.05c-1.01,-0.13 -2.03,0.16 -2.83,0.79l-9.58 7.33 -39.13 -4.94 -3.83 -0.48 2.17 -17.11zm1.91 31.14l1.21 -9.58 37.34 4.69 0.48 0c0.85,0 1.68,-0.28 2.36,-0.8l9.48 -7.34 14.25 1.8 -2.37 19c-0.14,1.05 -1.1,1.79 -2.15,1.65l-22.87 -2.74 -26.61 -3.33 -9.58 -1.19c-1.04,-0.17 -1.74,-1.13 -1.59,-2.16l0.05 0zm20.66 48.49c-0.06,0.52 -0.33,1 -0.75,1.32l-14.41 7.64 0 -4.4 10.54 -5.29c0.57,-0.29 0.96,-0.84 1.03,-1.48l3.63 -30.15 3.83 0.48 -3.87 31.88zm12.45 -36.81c-0.8,1.21 -2.22,1.86 -3.66,1.69l-11.95 -1.52c-1.45,-0.17 -2.66,-1.15 -3.15,-2.52l-0.63 -1.81 20.52 2.57 -1.13 1.59z"/>
 </g>
</svg>
