<?xml version="1.0" encoding="UTF-8"?>
<!--Generator: Apple Native CoreSVG 175.5-->
<!DOCTYPE svg
PUBLIC "-//W3C//DTD SVG 1.1//EN"
       "http://www.w3.org/Graphics/SVG/1.1/DTD/svg11.dtd">
<svg version="1.1" xmlns="http://www.w3.org/2000/svg" xmlns:xlink="http://www.w3.org/1999/xlink" width="8.125" height="16.1426">
 <g>
  <rect height="16.1426" opacity="0" width="8.125" x="0" y="0"/>
  <path d="M0.830078 16.1426C1.29883 16.1426 1.66992 15.791 1.66992 15.332L1.66992 0.830078C1.66992 0.371094 1.29883 0.00976562 0.830078 0.00976562C0.371094 0.00976562 0 0.371094 0 0.830078L0 15.332C0 15.791 0.371094 16.1426 0.830078 16.1426ZM7.28516 16.1426C7.74414 16.1426 8.125 15.791 8.125 15.332L8.125 0.830078C8.125 0.371094 7.74414 0.00976562 7.28516 0.00976562C6.82617 0.00976562 6.45508 0.371094 6.45508 0.830078L6.45508 15.332C6.45508 15.791 6.82617 16.1426 7.28516 16.1426Z" fill="#ffffff" fill-opacity="0.85"/>
 </g>
</svg>
