<svg width="11" height="11" viewBox="0 0 11 11" fill="none" xmlns="http://www.w3.org/2000/svg">
<path d="M10.4455 0.00300002L10.4985 0L10.5635 0.00399995L10.6085 0.012L10.67 0.0295L10.7235 0.0525L10.7735 0.081L10.8185 0.1145L10.8595 0.152L10.8855 0.1815L10.9265 0.2395L10.9525 0.2875C10.976 0.3375 10.991 0.3905 10.9975 0.4455L11 0.4985C11 0.536 10.996 0.573 10.988 0.6085L10.9705 0.67L7.7045 9.7085C7.64258 9.84328 7.54329 9.95747 7.41842 10.0375C7.29354 10.1175 7.14832 10.16 7 10.16C6.86641 10.1604 6.73499 10.1262 6.61854 10.0608C6.50209 9.99533 6.40458 9.90084 6.3355 9.7865L6.303 9.723L4.627 6.372L1.292 4.704C1.1686 4.64756 1.06218 4.55972 0.983383 4.44925C0.904588 4.33877 0.856178 4.20955 0.842996 4.0745L0.839996 4C0.839996 3.72 0.990496 3.464 1.2605 3.315L1.3305 3.28L10.339 0.027L10.392 0.012L10.4455 0.00300002Z" fill="white"/>
</svg>
