<?xml version="1.0" encoding="UTF-8"?>
<!--Generator: Apple Native CoreSVG 175.5-->
<!DOCTYPE svg
PUBLIC "-//W3C//DTD SVG 1.1//EN"
       "http://www.w3.org/Graphics/SVG/1.1/DTD/svg11.dtd">
<svg version="1.1" xmlns="http://www.w3.org/2000/svg" xmlns:xlink="http://www.w3.org/1999/xlink" width="17.334" height="21.5723">
 <g>
  <rect height="21.5723" opacity="0" width="17.334" x="0" y="0"/>
  <path d="M3.06641 21.084L14.2676 21.084C16.3086 21.084 17.334 20.0684 17.334 18.0566L17.334 8.31055C17.334 6.29883 16.3086 5.2832 14.2676 5.2832L11.543 5.2832L11.543 6.85547L14.2383 6.85547C15.2051 6.85547 15.7617 7.38281 15.7617 8.39844L15.7617 17.9688C15.7617 18.9844 15.2051 19.5117 14.2383 19.5117L3.08594 19.5117C2.10938 19.5117 1.57227 18.9844 1.57227 17.9688L1.57227 8.39844C1.57227 7.38281 2.10938 6.85547 3.08594 6.85547L5.79102 6.85547L5.79102 5.2832L3.06641 5.2832C1.02539 5.2832 0 6.29883 0 8.31055L0 18.0566C0 20.0684 1.02539 21.084 3.06641 21.084ZM8.66211 14.6582C8.86719 14.6582 9.0332 14.5996 9.22852 14.4043L12.5293 11.2109C12.6758 11.0645 12.7637 10.9082 12.7637 10.7031C12.7637 10.3027 12.4512 10.0195 12.0508 10.0195C11.8555 10.0195 11.6602 10.0977 11.5234 10.2539L10.0391 11.8262L9.38477 12.5195L9.44336 11.0547L9.44336 0.761719C9.44336 0.351562 9.08203 0 8.66211 0C8.24219 0 7.89062 0.351562 7.89062 0.761719L7.89062 11.0547L7.94922 12.5195L7.28516 11.8262L5.81055 10.2539C5.67383 10.0977 5.45898 10.0195 5.27344 10.0195C4.86328 10.0195 4.57031 10.3027 4.57031 10.7031C4.57031 10.9082 4.64844 11.0645 4.79492 11.2109L8.0957 14.4043C8.30078 14.5996 8.4668 14.6582 8.66211 14.6582Z" fill="#ffffff" fill-opacity="0.85"/>
 </g>
</svg>
