<?xml version="1.0" encoding="UTF-8"?>
<!DOCTYPE svg PUBLIC "-//W3C//DTD SVG 1.1//EN" "http://www.w3.org/Graphics/SVG/1.1/DTD/svg11.dtd">
<svg xmlns="http://www.w3.org/2000/svg" xml:space="preserve" width="27px" height="27px" version="1.1" style="shape-rendering:geometricPrecision; text-rendering:geometricPrecision; image-rendering:optimizeQuality; fill-rule:nonzero; clip-rule:evenodd" viewBox="0 0 0.71 0.71" xmlns:xlink="http://www.w3.org/1999/xlink">
 <g>
  <path fill="#6D7A8A" d="M0.35 0c0.1,0 0.19,0.04 0.26,0.1 0.06,0.07 0.1,0.16 0.1,0.25 0,0.1 -0.04,0.19 -0.1,0.26 -0.07,0.06 -0.16,0.1 -0.26,0.1 -0.09,0 -0.18,-0.04 -0.25,-0.1 -0.06,-0.07 -0.1,-0.16 -0.1,-0.26 0,-0.09 0.04,-0.18 0.1,-0.25 0.07,-0.06 0.16,-0.1 0.25,-0.1zm0.21 0.15c-0.05,-0.06 -0.12,-0.09 -0.21,-0.09 -0.08,0 -0.15,0.03 -0.2,0.09 -0.06,0.05 -0.09,0.12 -0.09,0.2 0,0.09 0.03,0.16 0.09,0.21 0.05,0.06 0.12,0.09 0.2,0.09 0.09,0 0.16,-0.03 0.21,-0.09 0.06,-0.05 0.09,-0.12 0.09,-0.21 0,-0.08 -0.03,-0.15 -0.09,-0.2z"/>
 </g>
</svg>
