<?xml version="1.0" encoding="UTF-8"?>
<!DOCTYPE svg PUBLIC "-//W3C//DTD SVG 1.1//EN" "http://www.w3.org/Graphics/SVG/1.1/DTD/svg11.dtd">
<!-- Creator: CorelDRAW 2019 (64-Bit) -->
<svg xmlns="http://www.w3.org/2000/svg" xml:space="preserve" width="123px" height="125px" version="1.1" style="shape-rendering:geometricPrecision; text-rendering:geometricPrecision; image-rendering:optimizeQuality; fill-rule:evenodd; clip-rule:evenodd"
viewBox="0 0 1281.44 1304.03"
 xmlns:xlink="http://www.w3.org/1999/xlink">
 <defs>
  <style type="text/css">
   <![CDATA[
    .fil0 {fill:#6D7A8A;fill-rule:nonzero}
   ]]>
  </style>
 </defs>
 <g id="Слой_x0020_1">
  <metadata id="CorelCorpID_0Corel-Layer"/>
  <path class="fil0" d="M640.72 1271.46c167.92,0 319.96,-69.3 429.96,-181.31 110.09,-112.07 178.2,-267 178.2,-438.14 0,-171.15 -68.11,-326.06 -178.19,-438.14 -110.01,-112 -262.05,-181.3 -429.97,-181.3 -167.92,0 -319.95,69.3 -429.97,181.3 -110.08,112.08 -178.18,266.99 -178.18,438.14 0,171.14 68.1,326.07 178.19,438.14 110.01,112.01 262.04,181.31 429.96,181.31zm-181.86 -631.38c-9.33,-0.31 -18.54,2.22 -26.44,7.26 -7.9,5.04 -14.15,12.37 -17.93,21.05 -3.78,8.68 -4.94,18.31 -3.31,27.67 1.62,9.35 5.95,17.99 12.44,24.82 6.49,6.83 14.82,11.52 23.95,13.5 9.12,1.97 18.62,1.12 27.26,-2.44 8.65,-3.55 16.06,-9.66 21.28,-17.53 5.22,-7.87 8.01,-17.15 8.01,-26.65 -0.08,-12.34 -4.83,-24.17 -13.26,-33.06 -8.44,-8.87 -19.89,-14.1 -32,-14.62zm0 63.58c-3.09,0 -6.11,-0.93 -8.68,-2.68 -2.57,-1.75 -4.57,-4.22 -5.75,-7.13 -1.18,-2.9 -1.49,-6.1 -0.88,-9.19 0.6,-3.08 2.08,-5.91 4.27,-8.14 2.17,-2.21 4.96,-3.72 7.98,-4.34 3.03,-0.62 6.17,-0.3 9.03,0.9 2.85,1.2 5.29,3.25 7,5.86 1.72,2.61 2.63,5.68 2.63,8.82 0,4.22 -1.65,8.26 -4.56,11.24 -2.93,2.99 -6.91,4.66 -11.04,4.66zm630.58 -65.87c1.51,0.41 3.02,1.05 4.43,1.86 1.43,0.81 2.77,1.82 3.92,2.93 1.19,1.17 2.23,2.49 3.08,3.87 0.85,1.41 1.53,2.95 2.01,4.51 0.46,1.55 0.75,3.21 0.82,4.89l0.03 189.26c-0.04,1.66 -0.27,3.29 -0.67,4.8 -0.4,1.55 -1.01,3.08 -1.78,4.48 -0.78,1.4 -1.73,2.72 -2.8,3.88 -1.07,1.15 -2.31,2.21 -3.65,3.07 -1.58,0.96 -3.18,1.67 -4.81,2.15 -1.49,0.43 -3.07,0.69 -4.68,0.73 -1.34,0.36 -2.7,0.53 -3.99,0.53 -1.45,0 -2.94,-0.21 -4.4,-0.62 -11.81,-3.67 -45.85,-23.25 -59.22,-30.06l-149.48 0c-1.56,0 -3.13,-0.18 -4.58,-0.54 -1.5,-0.37 -2.98,-0.97 -4.36,-1.74 -1.37,-0.75 -2.67,-1.71 -3.76,-2.76 -1.12,-1.08 -2.13,-2.33 -2.96,-3.7 -0.82,-1.44 -1.47,-2.94 -1.88,-4.45 -0.42,-1.57 -0.64,-3.18 -0.64,-4.78 0,-1.58 0.22,-3.2 0.64,-4.76 0.38,-1.44 1,-2.87 1.75,-4.21l53.38 -126.95c0.71,-1.74 1.68,-3.36 2.84,-4.78 1.18,-1.42 2.58,-2.72 4.15,-3.74 1.56,-1.03 3.28,-1.84 5.04,-2.34 1.71,-0.48 3.57,-0.71 5.42,-0.68l93.69 -0.03 58.64 -29.06c1.36,-0.76 2.81,-1.38 4.27,-1.76 1.58,-0.43 3.21,-0.65 4.77,-0.65 1.57,0 3.19,0.22 4.78,0.65zm-153.89 69.13l-38.91 88.84 25.7 0 38.9 -88.84 -25.69 0zm27.84 88.84c11.19,0 50.52,-1.61 58.53,0.08 1.48,0.31 2.94,0.82 4.32,1.43 1.3,0.58 2.56,1.32 3.73,2.16l34.06 18.03 0 -128.7c-5.94,3.09 -30.83,17.12 -35.12,18.08 -1.44,0.28 -2.84,0.43 -4.16,0.43l-3.69 -0.35 -18.77 0 -38.9 88.84zm-77.87 -212.7c3.27,3.09 6.24,6.67 8.72,10.6 2.48,4 4.43,8.28 5.8,12.71 1.39,4.42 2.24,9.05 2.47,13.73 0.22,4.65 -0.12,9.32 -1.04,13.89 -0.9,4.48 -2.37,8.85 -4.3,12.94l-97.18 222.5c-2.09,4.9 -4.87,9.48 -8.22,13.55 -3.3,4.09 -7.3,7.72 -11.78,10.72 -4.42,2.97 -9.24,5.27 -14.3,6.82 -5.04,1.54 -10.35,2.36 -15.69,2.37l-292.31 0.04c-15.56,0 -30.91,-3.19 -45.12,-9.18 -14.18,-5.97 -27.2,-14.76 -38.22,-25.97 -11.02,-11.22 -19.66,-24.49 -25.52,-38.87 -5.85,-14.39 -8.96,-29.95 -8.96,-45.78l0.04 -95.48c0.12,-8.25 1.1,-16.5 2.88,-24.58 1.78,-8.07 4.39,-15.95 7.74,-23.44 3.37,-7.54 7.53,-14.71 12.32,-21.34 3.41,-4.75 7.2,-9.26 11.31,-13.47l-162.71 -239.87 -37.83 0 0 -43.32 163.81 0 0 43.32 -66.19 0 143.69 211.75c5.79,-2.35 11.74,-4.21 17.77,-5.56 8.31,-1.87 16.84,-2.78 25.38,-2.72l390.27 -0.04c4.58,0 9.13,0.55 13.43,1.64 4.41,1.12 8.71,2.81 12.71,5.01 3.99,2.17 7.72,4.92 11.03,8.03zm-127.73 267.15l98.84 -226.73 -0.32 -1.55c-0.91,-1.77 -1.16,-2.18 -2.34,-3.69l-1.38 -1.06 -1.51 -0.57c-97.59,-11.57 -284.98,-0.16 -392.22,-0.16 -9.32,0 -18.42,1.87 -26.72,5.37 -8.37,3.53 -16.13,8.77 -22.69,15.46 -6.54,6.65 -11.69,14.57 -15.17,23.13 -3.48,8.56 -5.33,17.85 -5.33,27.36l0 95.36c0,9.51 1.85,18.81 5.33,27.36 3.48,8.57 8.63,16.48 15.17,23.14 6.56,6.68 14.32,11.92 22.69,15.46 8.3,3.49 17.4,5.36 26.72,5.36l292.31 0 1.99 -0.28 1.9 -0.86 1.6 -1.41 1.13 -1.69zm336.05 262.71c-115.96,118.06 -276.17,191.11 -453.12,191.11 -176.94,0 -337.16,-73.05 -453.12,-191.11 -115.9,-117.98 -187.6,-280.95 -187.6,-460.91 0,-179.95 71.7,-342.91 187.59,-460.91 115.97,-118.06 276.19,-191.1 453.13,-191.1 176.95,0 337.16,73.04 453.14,191.1 115.88,118 187.58,280.96 187.58,460.91 0,179.96 -71.7,342.93 -187.6,460.91z"/>
 </g>
</svg>
