<?xml version="1.0" encoding="UTF-8"?>
<!DOCTYPE svg PUBLIC "-//W3C//DTD SVG 1.1//EN" "http://www.w3.org/Graphics/SVG/1.1/DTD/svg11.dtd">
<svg xmlns="http://www.w3.org/2000/svg" xml:space="preserve" width="67px" height="67px" version="1.1" style="shape-rendering:geometricPrecision; text-rendering:geometricPrecision; image-rendering:optimizeQuality; fill-rule:evenodd; clip-rule:evenodd" viewBox="0 0 9.34 9.28" xmlns:xlink="http://www.w3.org/1999/xlink">
 <g>
  <path fill="#E41A4C" d="M4.9 9.28c-0.06,0 -0.06,0 -0.06,0l-0.25 0 -0.06 0c-0.19,0 -0.31,-0.06 -0.5,-0.06 -0.49,-0.06 -0.99,-0.25 -1.49,-0.49 -1.45,-0.79 -2.37,-2.1 -2.53,-3.59 -0.01,-0.09 -0.01,-0.17 -0.01,-0.25l0 -0.06c0,-0.07 0,-0.13 0,-0.19l0 -0.06c0,-0.07 0.01,-0.13 0.02,-0.2 0.03,-0.24 0.06,-0.48 0.11,-0.71 0.2,-0.92 0.56,-1.58 1.11,-2.19 0.67,-0.71 1.48,-1.19 2.44,-1.41 0.24,-0.06 0.47,-0.07 0.71,-0.07 0.4,0.01 0.83,0.03 1.26,0.12 1.12,0.25 2.05,0.87 2.79,1.8 0.81,1.11 1.06,2.29 0.81,3.65 -0.19,0.87 -0.56,1.61 -1.18,2.29 -0.78,0.78 -1.79,1.26 -2.92,1.41 -0.08,0.01 -0.16,0.01 -0.25,0.01zm-1.07 -3.4c0.17,0.15 0.11,0.39 -0.09,0.48 -0.01,0.01 -0.02,0.02 -0.04,0.02 -0.17,0.06 -0.34,0.12 -0.52,0.17 -0.01,0.01 -0.02,0.01 -0.03,0.01 -0.03,0 -0.06,-0.01 -0.08,-0.03 -0.1,-0.11 -0.21,-0.21 -0.31,-0.31 -0.02,-0.02 -0.03,-0.05 -0.03,-0.07 0,-0.02 0,-0.03 0.01,-0.04 0.02,-0.07 0.05,-0.14 0.08,-0.21 0.13,-0.35 0.58,-0.43 0.85,-0.18 0.05,0.05 0.11,0.1 0.16,0.16zm2.29 -1.58c-0.1,-0.09 -0.23,-0.07 -0.33,0.02l-0.01 0 0 0 0 0 0 0.01 -0.01 0 0 0 -0.02 0.02 0 0 -1.18 1.18c-0.03,0.03 -0.04,0.08 -0.07,0.09 -0.03,0.02 -0.04,0.03 -0.07,0.03 -0.04,0.01 -0.08,0 -0.11,-0.02 -0.01,-0.01 -0.02,-0.02 -0.03,-0.03 0.01,-0.09 0.1,-0.15 0.15,-0.22 0.41,-0.49 0.86,-0.89 1.31,-1.34 0.01,0 0.02,-0.02 0.03,-0.02 0.01,0 0.04,-0.01 0.03,-0.02l-0.07 -0.08 -0.01 0 0 0 0 -0.01 -0.01 0 0 0 -0.01 -0.02 -0.01 0 0 0 0 0 -0.01 -0.01 0 0 -0.01 -0.01 0 0 -0.01 -0.01 0 0 -0.01 -0.01 0 0 -0.02 -0.02 0 0 0 0 0 -0.01 -0.01 0 0 0 -0.01 -0.01 0 0 0 0 0 -0.01 -0.01 0 0 0 0 -0.01 -0.01 0 0 0 0 -0.01 -0.01 -0.01 -0.01 0 0 0 0 -0.01 -0.01 0 0 0 0 -0.01 -0.01 0 0 0 0 0 -0.01 -0.01 -0.02 -0.02 0 0 -0.01 -0.01 0 0 0 0 -0.01 -0.01 -0.01 -0.01 0 0 0 0 -0.01 -0.01 0 0 -0.01 -0.01 0 0 -0.01 -0.01 0 0 0 0 0 -0.01 -0.01 0 0 0 -0.01 -0.01 0 0 0 -0.01 0 0 -0.01 0 0 0 -0.01 -0.01 0 0 0 -0.01 0 0 -0.01 0 0 0 -0.01 -0.01 0 0 0 -0.01 -0.01 0 -0.01 -0.01 0 0 -0.01 -0.01 0 0 0 0 -0.01 -0.01 0 0 -0.07 -0.07c-0.01,-0.01 -0.02,0.02 -0.02,0.03 0,0.01 -0.02,0.02 -0.03,0.03 -0.42,0.43 -0.8,0.85 -1.22,1.24l0 0 -0.02 0.02 0 0 -0.02 0.02 -0.01 0 -0.02 0.02 0 0 -0.02 0.02 0 0 -0.02 0.02 0 0 -0.05 0.04c-0.01,0.01 -0.02,0.02 -0.02,0.03 -0.01,0.01 -0.01,0.02 -0.02,0.03 -0.01,0.01 -0.03,0.02 -0.04,0.02 0,0 0,0 0,0 0,0 -0.07,0 -0.13,0 -0.02,0 -0.03,0 -0.04,-0.01l0 0 0 0 0 0 0 0 0 -0.01 0 0 0 0 0 0 -0.01 0 0 0 0 0 0 0 0 0 0 0 0 0 0 -0.01 0 0 0 0 0 0 0 0 0 0 0 0 0 0 0 0 0 0 0 0 0 0 0 0 0 -0.01 0 0 0 0 0 0 0 0 0 0 0 0 0 0 0 0 0 0 0 0 0 0 0 -0.01 -0.01 0 0 0c0,-0.05 0.03,-0.1 0.06,-0.13l0.07 -0.07 0 0 0 0 0 0 0.01 -0.01 0 0 0.01 -0.01 0 -0.01 0.01 0 0.01 -0.01 0 0 0.01 -0.01 0 -0.01 0.01 0 0 -0.01 0.01 0 0.01 -0.01 0 0 0.01 -0.01 0 -0.01 0.01 0 0.01 -0.01 0 0 0.01 -0.01 0 0 0.01 -0.01 0 0 0.01 -0.01 0 0 0.01 -0.01 0 0 0.01 -0.01 0 -0.01 0.01 0 0.01 -0.01 0 0 0.01 -0.01 0 0 0.01 -0.01 0 0 0.01 -0.01 0 0 0.01 -0.01 0 0 0.01 -0.01 0 -0.01 0.01 0 0.01 -0.01 0 -0.01 0.01 0 0.01 -0.01 0 0 0.01 -0.01 0 0 0.01 -0.01 0 0 0.01 -0.01 0 0 0.01 -0.01 0.01 -0.01 0 0 0.01 -0.01 0 0 0.01 -0.01 0 0 0.01 -0.01 0 0 0.01 -0.01 0 0 0.01 -0.01 0 0 0.01 -0.01 0.01 -0.01 0 0 0.01 -0.01 0 0 0.01 -0.01 0 0 0.01 -0.01 0 0 0.01 -0.01 0 0 0.01 -0.01 0 0 0.02 -0.02 0 0 0.01 -0.01 0 0 0.01 -0.01 0 0 0.01 -0.01 0 0 0.01 -0.01 0 0 0.01 -0.01 0 0 0.01 -0.01 0.01 -0.01 0 0 0.01 -0.01 0 0 0.01 -0.01 0 0 0.01 -0.01 0 0 0.01 -0.01 0 0 0.01 -0.01 0 0 0.01 -0.01 0.01 -0.01 0 0 0.01 -0.01 0 0 0.01 -0.01 0 0 0.01 -0.01 0 0 0.01 -0.01 0 0 0.01 -0.01 0.01 -0.01 0 0 0.01 -0.01 0.01 -0.01 0 0 0.01 0 0 -0.01 0 0 0.01 -0.01 0 0 0.01 -0.01 0 0 0 0 0.01 -0.01 0 0 0.01 -0.01 0 0 0.01 -0.01 0 0 0.01 0 0 -0.01 0 0 0.01 0 0 -0.01 0 0 0.01 -0.01 0 0 0.01 0 0 -0.01 0 0 0.01 -0.01 0 0 0.01 -0.01 0 0 0.01 -0.01 0 0 0 0 0.01 -0.01 0 0 0.01 0 0 -0.01 0 0 0.01 -0.01 0 0 0 0 0.01 -0.01 0 0 0.01 -0.01 0 0 0.01 -0.01 0 0 0 0 0.01 -0.01 0 0 0.01 0 0 -0.01 0 0 0.01 -0.01 0 0 0.01 0 0 -0.01 0 0 0.01 -0.01 0 0 0.01 -0.01 0 0 0.01 0 0 -0.01 0 0 0.02 -0.01 0 -0.01 0 0 0.01 0 0 -0.01 0 0 0.01 -0.01 0 0 0.01 -0.01 0 0 0.01 -0.01 0 0 0 0 0.01 -0.01 0 0 0.01 -0.01 0 0 0.01 0 0 -0.01 0 0 0 0 0.01 -0.01 0 0 0.01 -0.01 0 0 0.01 -0.01 0 0 0.01 0 0 -0.01 0 0 0.01 -0.01 0 0 0.01 0 0 -0.01 0.01 0 0 0 0 -0.01 0 0 0.01 -0.01 0 0 0.01 -0.01 0 0 0.01 0 0 -0.01 0 0 0.01 -0.01 0 0 0.01 -0.01 0 0 0.01 0 0 0 0 -0.01 0.01 0 0 -0.01 0 0 0.06 -0.06c0.11,-0.11 0.11,-0.27 0,-0.38 -0.03,-0.03 -0.08,-0.06 -0.13,-0.07 -0.12,-0.04 -0.27,-0.02 -0.36,0.07 -0.54,0.55 -1.09,1.09 -1.63,1.63 -0.03,0.03 -0.1,0.05 -0.11,0.1 0,0.01 0,0.02 -0.01,0.04 -0.24,0.65 -0.48,1.36 -0.71,2.02 -0.02,0.03 -0.03,0.07 -0.02,0.11 0,0.01 0,0.01 0,0.01 0.01,0.08 0.1,0.12 0.18,0.12l0 0c0.1,0.1 0.26,-0.03 0.39,-0.07 0.61,-0.22 1.26,-0.44 1.87,-0.66 0.03,-0.01 0.06,-0.01 0.08,-0.03 0.05,-0.04 0.11,-0.07 0.15,-0.12 0.41,-0.41 0.82,-0.81 1.17,-1.16 0.11,-0.11 0.24,-0.24 0.37,-0.37 0.12,-0.12 0.06,-0.35 -0.08,-0.47zm1.2 -0.96c0.02,-0.32 -0.36,-0.52 -0.61,-0.76 -0.13,-0.12 -0.25,-0.26 -0.38,-0.41 -0.25,-0.25 -0.56,-0.25 -0.81,0 -0.24,0.24 -0.3,0.59 -0.18,0.89 0.04,0.1 0.1,0.2 0.18,0.28 0.15,0.15 0.3,0.29 0.45,0.44 0.3,0.31 0.78,0.29 1.12,0.03 0.03,-0.02 0.06,-0.05 0.09,-0.08 0.1,-0.12 0.15,-0.26 0.14,-0.39z"/>
 </g>
</svg>
