<?xml version="1.0" encoding="UTF-8"?>
<!DOCTYPE svg PUBLIC "-//W3C//DTD SVG 1.1//EN" "http://www.w3.org/Graphics/SVG/1.1/DTD/svg11.dtd">
<svg xmlns="http://www.w3.org/2000/svg" xml:space="preserve" width="61px" height="61px" version="1.1" style="shape-rendering:geometricPrecision; text-rendering:geometricPrecision; image-rendering:optimizeQuality; fill-rule:evenodd; clip-rule:evenodd" viewBox="0 0 5.23 5.23" xmlns:xlink="http://www.w3.org/1999/xlink">
 <g>
  <path fill="#E41A4C" d="M0.8 4.5c-0.25,-0.25 -0.45,-0.53 -0.59,-0.85 -0.13,-0.32 -0.21,-0.67 -0.21,-1.01 0,-0.35 0.06,-0.69 0.19,-1.02 0.14,-0.32 0.33,-0.61 0.58,-0.85 0.24,-0.25 0.53,-0.44 0.85,-0.58 0.33,-0.13 0.67,-0.19 1.02,-0.19 0.34,0 0.69,0.08 1.01,0.21 0.32,0.14 0.6,0.34 0.85,0.59 0.47,0.49 0.74,1.15 0.73,1.84 -0.01,0.68 -0.28,1.34 -0.77,1.82 -0.48,0.49 -1.14,0.76 -1.82,0.77 -0.69,0.01 -1.35,-0.26 -1.84,-0.73zm2.21 -1.85l0.74 -0.74 -0.37 -0.37 -0.73 0.74 -0.74 -0.74 -0.37 0.37 0.74 0.74 -0.74 0.74 0.37 0.37 0.74 -0.74 0.74 0.74 0.37 -0.37 -0.74 -0.74 -0.01 0z"/>
 </g>
</svg>
