<?xml version="1.0" encoding="UTF-8"?>
<!DOCTYPE svg PUBLIC "-//W3C//DTD SVG 1.1//EN" "http://www.w3.org/Graphics/SVG/1.1/DTD/svg11.dtd">
<svg xmlns="http://www.w3.org/2000/svg" xml:space="preserve" width="76px" height="71px" version="1.1" style="shape-rendering:geometricPrecision; text-rendering:geometricPrecision; image-rendering:optimizeQuality; fill-rule:evenodd; clip-rule:evenodd" viewBox="0 0 6 5.57" xmlns:xlink="http://www.w3.org/1999/xlink">
 <g>
  <path fill="#E41A4C" d="M0.82 0l0 0.8 -0.82 0 0 0.53 0.82 0 0 0.79 0.54 0 0 -0.79 0.82 0 0 -0.53 -0.82 0 0 -0.8 -0.54 0zm1.91 0.8l0 0.53 2.46 0 0 0.53 -1.64 0c-0.3,0 -0.55,0.24 -0.55,0.53l0 1.59c0,0.29 0.25,0.53 0.55,0.53l1.64 0 0 0.53 -3.83 0 0 -2.39 -0.54 0 0 2.39c0,0.14 0.06,0.28 0.16,0.38 0.1,0.1 0.24,0.15 0.38,0.15l3.83 0c0.3,0 0.54,-0.24 0.54,-0.53l0 -0.6c0.08,-0.05 0.15,-0.12 0.2,-0.2 0.05,-0.08 0.07,-0.17 0.07,-0.26l0 -1.59c0,-0.09 -0.02,-0.19 -0.07,-0.27 -0.05,-0.08 -0.12,-0.14 -0.2,-0.19l0 -0.6c0,-0.3 -0.24,-0.53 -0.54,-0.53l-2.46 0zm0.82 1.59l1.91 0 0 1.59 -1.91 0 0 -1.59zm0.82 0.4c-0.11,0 -0.22,0.04 -0.29,0.11 -0.08,0.08 -0.12,0.18 -0.12,0.28 0,0.11 0.04,0.21 0.12,0.29 0.07,0.07 0.18,0.11 0.29,0.11 0.1,0 0.21,-0.04 0.29,-0.11 0.07,-0.08 0.12,-0.18 0.12,-0.29 0,-0.1 -0.05,-0.2 -0.12,-0.28 -0.08,-0.07 -0.19,-0.11 -0.29,-0.11z"/>
 </g>
</svg>
