<?xml version="1.0" encoding="UTF-8"?>
<!DOCTYPE svg PUBLIC "-//W3C//DTD SVG 1.1//EN" "http://www.w3.org/Graphics/SVG/1.1/DTD/svg11.dtd">
<!-- Creator: CorelDRAW 2019 (64-Bit) -->
<svg xmlns="http://www.w3.org/2000/svg" xml:space="preserve" width="123px" height="125px" version="1.1" style="shape-rendering:geometricPrecision; text-rendering:geometricPrecision; image-rendering:optimizeQuality; fill-rule:evenodd; clip-rule:evenodd"
viewBox="0 0 42.6 43.35"
 xmlns:xlink="http://www.w3.org/1999/xlink">
 <defs>
  <style type="text/css">
   <![CDATA[
    .fil0 {fill:#6D7A8A;fill-rule:nonzero}
   ]]>
  </style>
 </defs>
 <g id="Слой_x0020_1">
  <metadata id="CorelCorpID_0Corel-Layer"/>
  <path class="fil0" d="M21.3 42.27c5.58,0 10.64,-2.3 14.3,-6.03 3.66,-3.72 5.92,-8.87 5.92,-14.56 0,-5.69 -2.26,-10.84 -5.92,-14.57 -3.66,-3.72 -8.72,-6.03 -14.3,-6.03 -5.58,0 -10.64,2.31 -14.29,6.03 -3.66,3.73 -5.93,8.88 -5.93,14.57 0,5.69 2.27,10.84 5.93,14.56 3.65,3.73 8.71,6.03 14.29,6.03zm-6.95 -35.42l13.93 0c0.15,0 0.31,0.02 0.45,0.05 0.15,0.03 0.29,0.07 0.43,0.13 0.14,0.06 0.27,0.14 0.4,0.22 0.12,0.09 0.24,0.19 0.34,0.29 0.11,0.11 0.2,0.23 0.29,0.36 0.08,0.12 0.15,0.26 0.2,0.4 0.06,0.15 0.1,0.3 0.13,0.44 0.03,0.15 0.04,0.3 0.04,0.45l0 25.04c0,0.15 -0.01,0.3 -0.04,0.45 -0.03,0.14 -0.07,0.29 -0.13,0.43 -0.05,0.15 -0.12,0.28 -0.21,0.41 -0.08,0.13 -0.17,0.25 -0.28,0.35 -0.1,0.11 -0.22,0.21 -0.34,0.3 -0.13,0.08 -0.26,0.16 -0.4,0.22 -0.14,0.05 -0.28,0.1 -0.43,0.13 -0.14,0.03 -0.3,0.05 -0.45,0.05l-13.93 0c-0.31,0 -0.61,-0.06 -0.89,-0.18 -0.28,-0.12 -0.53,-0.29 -0.75,-0.51 -0.21,-0.22 -0.38,-0.48 -0.5,-0.76 -0.11,-0.28 -0.17,-0.59 -0.17,-0.89l0 -25.04c0,-0.31 0.06,-0.61 0.17,-0.89 0.12,-0.28 0.29,-0.54 0.5,-0.76 0.22,-0.22 0.47,-0.39 0.75,-0.51 0.28,-0.12 0.58,-0.18 0.89,-0.18zm14.76 27.84c0.03,-0.06 0.04,-0.13 0.04,-0.2l0 -25.63c0,-0.07 -0.01,-0.14 -0.04,-0.2 -0.02,-0.06 -0.06,-0.12 -0.1,-0.17 -0.05,-0.04 -0.11,-0.08 -0.17,-0.11 -0.05,-0.02 -0.12,-0.04 -0.18,-0.04l-14.72 0c-0.06,0 -0.12,0.02 -0.18,0.04 -0.06,0.03 -0.12,0.07 -0.16,0.11 -0.05,0.05 -0.09,0.11 -0.11,0.17 -0.03,0.06 -0.04,0.13 -0.04,0.2l0 25.63c0,0.07 0.01,0.14 0.04,0.2 0.02,0.06 0.06,0.12 0.11,0.17 0.04,0.05 0.1,0.08 0.16,0.11 0.06,0.03 0.12,0.04 0.18,0.04l14.72 0c0.06,0 0.13,-0.01 0.18,-0.04 0.06,-0.03 0.12,-0.06 0.17,-0.11 0.04,-0.05 0.08,-0.11 0.1,-0.17zm-3.59 -5.31c-0.35,0 -0.69,0.1 -0.98,0.3 -0.28,0.19 -0.51,0.47 -0.64,0.8 -0.13,0.32 -0.17,0.68 -0.1,1.03 0.07,0.34 0.23,0.66 0.48,0.91 0.24,0.25 0.56,0.42 0.9,0.49 0.34,0.07 0.69,0.03 1.01,-0.1 0.32,-0.14 0.59,-0.37 0.78,-0.66 0.2,-0.29 0.3,-0.64 0.3,-0.99 0,-0.23 -0.05,-0.47 -0.13,-0.68 -0.09,-0.22 -0.22,-0.41 -0.38,-0.58 -0.17,-0.17 -0.36,-0.3 -0.57,-0.39 -0.21,-0.09 -0.44,-0.13 -0.67,-0.13zm0 2.51c-0.15,0 -0.29,-0.04 -0.41,-0.12 -0.12,-0.08 -0.22,-0.2 -0.27,-0.33 -0.06,-0.14 -0.08,-0.29 -0.05,-0.43 0.03,-0.15 0.1,-0.28 0.2,-0.39 0.1,-0.1 0.23,-0.17 0.38,-0.2 0.14,-0.03 0.29,-0.01 0.42,0.05 0.13,0.05 0.25,0.15 0.32,0.28 0.08,0.12 0.12,0.26 0.12,0.41 0,0.19 -0.07,0.38 -0.21,0.51 -0.13,0.14 -0.31,0.22 -0.5,0.22zm-8.29 0.33c-0.04,-0.1 -0.11,-0.18 -0.19,-0.24 -0.09,-0.06 -0.19,-0.09 -0.29,-0.09 -0.11,0 -0.21,0.03 -0.29,0.09 -0.09,0.06 -0.15,0.14 -0.19,0.24 -0.04,0.1 -0.04,0.21 -0.02,0.32 0.03,0.11 0.08,0.2 0.16,0.28 0.09,0.05 0.19,0.08 0.3,0.08 0.1,0 0.21,-0.03 0.3,-0.08 0.1,-0.07 0.19,-0.17 0.23,-0.29 0.04,-0.12 0.03,-0.25 -0.01,-0.36 0,0 0.01,0.08 0,0.05zm0 -1.89c-0.04,-0.09 -0.09,-0.16 -0.16,-0.22 -0.07,-0.06 -0.15,-0.09 -0.24,-0.11 -0.09,-0.01 -0.18,0 -0.27,0.03 -0.08,0.03 -0.16,0.09 -0.21,0.16 -0.06,0.07 -0.1,0.15 -0.12,0.24 -0.01,0.09 0,0.19 0.03,0.27 0.03,0.09 0.08,0.17 0.14,0.23 0.07,0.06 0.15,0.1 0.24,0.12 0.09,0.01 0.19,0 0.27,-0.03 0.09,-0.04 0.16,-0.09 0.22,-0.16 0.06,-0.08 0.1,-0.16 0.12,-0.25 0.01,-0.1 0.01,-0.19 -0.02,-0.28 0.01,0.03 0,0 0,0zm0 -1.89c-0.04,-0.08 -0.09,-0.16 -0.16,-0.21 -0.07,-0.06 -0.15,-0.1 -0.24,-0.11 -0.09,-0.02 -0.18,-0.01 -0.26,0.02 -0.09,0.03 -0.16,0.09 -0.22,0.16 -0.06,0.07 -0.1,0.15 -0.11,0.24 -0.02,0.09 -0.01,0.18 0.01,0.27 0.03,0.08 0.08,0.16 0.15,0.22 0.06,0.06 0.14,0.11 0.23,0.13 0.09,0.01 0.19,0.01 0.27,-0.03 0.09,-0.03 0.17,-0.08 0.23,-0.15 0.06,-0.08 0.1,-0.16 0.12,-0.26 0.02,-0.09 0.01,-0.19 -0.02,-0.28zm0 -1.89c-0.04,-0.08 -0.09,-0.15 -0.16,-0.2 -0.06,-0.05 -0.14,-0.09 -0.22,-0.11 -0.09,-0.01 -0.17,-0.01 -0.25,0.02 -0.08,0.03 -0.16,0.07 -0.22,0.13 -0.06,0.07 -0.1,0.15 -0.12,0.24 -0.02,0.09 -0.02,0.18 0,0.27 0.03,0.09 0.08,0.17 0.14,0.23 0.06,0.07 0.14,0.12 0.23,0.14 0.09,0.02 0.19,0.02 0.28,-0.02 0.09,-0.03 0.17,-0.08 0.23,-0.15 0.06,-0.08 0.1,-0.17 0.12,-0.26 0.01,-0.1 0,-0.2 -0.03,-0.29zm2.12 5.66c-0.04,-0.1 -0.1,-0.18 -0.19,-0.23 -0.08,-0.06 -0.18,-0.09 -0.28,-0.09 -0.1,0 -0.2,0.03 -0.28,0.09 -0.08,0.05 -0.15,0.13 -0.19,0.23 -0.04,0.1 -0.05,0.21 -0.02,0.32 0.02,0.11 0.08,0.21 0.16,0.29 0.09,0.05 0.19,0.09 0.29,0.09 0.11,0 0.21,-0.04 0.29,-0.09 0.11,-0.07 0.2,-0.17 0.24,-0.29 0.04,-0.13 0.03,-0.26 -0.02,-0.38 0,0 0,0.1 0,0.06zm0 -1.88c-0.02,-0.06 -0.06,-0.12 -0.1,-0.17 -0.1,-0.1 -0.23,-0.15 -0.36,-0.15 -0.14,0 -0.27,0.05 -0.37,0.15 -0.08,0.09 -0.12,0.21 -0.12,0.34 0,0.12 0.04,0.24 0.12,0.33 0.07,0.12 0.18,0.2 0.31,0.23 0.12,0.03 0.26,0.01 0.37,-0.05 0.11,-0.06 0.2,-0.17 0.24,-0.3 0.03,-0.12 0.02,-0.26 -0.03,-0.38 0,0 -0.06,0.03 -0.06,0zm0 -1.89c-0.02,-0.06 -0.06,-0.12 -0.1,-0.17 -0.1,-0.1 -0.23,-0.15 -0.36,-0.15 -0.14,0 -0.27,0.05 -0.37,0.15 -0.07,0.07 -0.11,0.15 -0.14,0.24 -0.03,0.1 -0.03,0.2 0,0.29 0.03,0.09 0.08,0.18 0.15,0.24 0.07,0.07 0.15,0.12 0.25,0.14 0.09,0.01 0.19,0.01 0.28,-0.03 0.09,-0.03 0.16,-0.09 0.22,-0.16 0.06,-0.08 0.1,-0.17 0.11,-0.27 0.02,-0.09 0,-0.19 -0.04,-0.28zm0 -1.89c-0.04,-0.1 -0.1,-0.18 -0.19,-0.24 -0.09,-0.06 -0.2,-0.09 -0.3,-0.08 -0.11,0 -0.21,0.04 -0.29,0.1 -0.09,0.06 -0.15,0.15 -0.19,0.25 -0.03,0.11 -0.03,0.22 0,0.32 0.03,0.1 0.08,0.2 0.17,0.27 0.08,0.06 0.18,0.1 0.28,0.11 0.11,0.01 0.21,-0.01 0.3,-0.06 0.11,-0.07 0.2,-0.17 0.24,-0.29 0.04,-0.13 0.03,-0.26 -0.02,-0.38zm1.9 5.43c-0.09,-0.07 -0.2,-0.11 -0.32,-0.11 -0.11,0 -0.23,0.04 -0.32,0.11 -0.06,0.05 -0.1,0.12 -0.13,0.2 -0.03,0.08 -0.05,0.16 -0.04,0.24 0.01,0.08 0.03,0.16 0.07,0.23 0.05,0.07 0.1,0.13 0.17,0.18 0.07,0.04 0.15,0.07 0.23,0.07 0.08,0.01 0.16,0 0.23,-0.03 0.08,-0.03 0.15,-0.07 0.2,-0.13 0.05,-0.06 0.09,-0.14 0.12,-0.22 0.03,-0.11 0.03,-0.22 -0.01,-0.33 -0.04,-0.11 -0.11,-0.2 -0.2,-0.26 0,0 0.02,0.06 0,0.05zm0.19 -1.65c-0.03,-0.1 -0.1,-0.18 -0.18,-0.24 -0.08,-0.06 -0.18,-0.09 -0.28,-0.09 -0.11,0 -0.22,0.03 -0.3,0.1 -0.09,0.06 -0.16,0.15 -0.2,0.26 -0.03,0.1 -0.04,0.21 0,0.32 0.03,0.1 0.09,0.19 0.17,0.26 0.09,0.08 0.2,0.12 0.32,0.13 0.11,0 0.23,-0.03 0.32,-0.11 0.09,-0.07 0.16,-0.17 0.19,-0.28 0.03,-0.12 0.01,-0.24 -0.04,-0.35 0.02,0.03 0,0 0,0zm0 -1.89c-0.04,-0.1 -0.1,-0.18 -0.19,-0.24 -0.08,-0.06 -0.18,-0.09 -0.29,-0.09 -0.1,0 -0.2,0.03 -0.29,0.09 -0.08,0.06 -0.15,0.14 -0.19,0.24 -0.03,0.1 -0.03,0.21 0,0.31 0.03,0.11 0.09,0.2 0.17,0.26 0.09,0.07 0.19,0.1 0.3,0.1 0.11,0 0.21,-0.03 0.3,-0.1 0.1,-0.07 0.17,-0.17 0.21,-0.28 0.03,-0.12 0.03,-0.24 -0.02,-0.36l0 0.07zm-0.19 -2.14c-0.1,-0.07 -0.22,-0.1 -0.34,-0.09 -0.12,0.01 -0.23,0.07 -0.31,0.16 -0.06,0.05 -0.1,0.12 -0.13,0.2 -0.03,0.07 -0.04,0.16 -0.03,0.24 0.01,0.08 0.04,0.16 0.08,0.23 0.04,0.06 0.1,0.12 0.17,0.16 0.07,0.05 0.14,0.07 0.22,0.08 0.08,0.01 0.16,-0.01 0.24,-0.03 0.07,-0.03 0.14,-0.08 0.19,-0.14 0.06,-0.06 0.09,-0.13 0.12,-0.21 0.03,-0.11 0.03,-0.23 -0.01,-0.34 -0.04,-0.11 -0.11,-0.2 -0.2,-0.26zm0.05 -8.92c0.5,0.01 0.99,-0.14 1.41,-0.43 0.42,-0.28 0.75,-0.68 0.94,-1.15 0.19,-0.47 0.24,-0.99 0.15,-1.49 -0.1,-0.5 -0.34,-0.96 -0.7,-1.32 -0.35,-0.36 -0.8,-0.61 -1.3,-0.71 -0.49,-0.1 -1,-0.05 -1.46,0.15 -0.46,0.2 -0.86,0.53 -1.14,0.95 -0.27,0.43 -0.42,0.93 -0.42,1.44 0,0.68 0.27,1.33 0.74,1.81 0.47,0.48 1.11,0.75 1.78,0.75zm0 -4.08c0.3,0 0.58,0.09 0.83,0.26 0.25,0.16 0.44,0.4 0.55,0.68 0.11,0.28 0.14,0.58 0.08,0.88 -0.05,0.29 -0.2,0.56 -0.4,0.77 -0.21,0.22 -0.48,0.36 -0.77,0.42 -0.29,0.06 -0.59,0.03 -0.86,-0.09 -0.27,-0.11 -0.51,-0.31 -0.67,-0.56 -0.16,-0.25 -0.25,-0.54 -0.25,-0.84 0,-0.4 0.16,-0.79 0.44,-1.07 0.28,-0.29 0.66,-0.45 1.05,-0.45zm0 5.92c0.86,0 1.69,-0.26 2.4,-0.74 0.71,-0.49 1.27,-1.17 1.59,-1.98 0.33,-0.8 0.42,-1.68 0.25,-2.54 -0.17,-0.85 -0.58,-1.63 -1.18,-2.25 -0.61,-0.62 -1.38,-1.03 -2.22,-1.2 -0.83,-0.17 -1.7,-0.09 -2.49,0.25 -0.79,0.33 -1.47,0.89 -1.94,1.62 -0.48,0.72 -0.73,1.57 -0.73,2.44 0,1.17 0.46,2.28 1.27,3.11 0.81,0.82 1.91,1.29 3.05,1.29zm0 -7.75c0.65,-0.02 1.3,0.17 1.85,0.53 0.54,0.37 0.98,0.89 1.23,1.5 0.26,0.61 0.33,1.29 0.21,1.94 -0.12,0.66 -0.43,1.26 -0.89,1.73 -0.46,0.48 -1.04,0.8 -1.68,0.94 -0.65,0.13 -1.31,0.07 -1.92,-0.18 -0.6,-0.26 -1.12,-0.69 -1.48,-1.24 -0.37,-0.55 -0.56,-1.2 -0.56,-1.87 0,-0.88 0.34,-1.73 0.94,-2.35 0.61,-0.63 1.44,-0.99 2.3,-1zm5.45 9l-10.9 0c-0.13,0 -0.26,0.06 -0.36,0.15 -0.1,0.1 -0.15,0.23 -0.16,0.37l0 3.04c0,0.14 0.06,0.27 0.15,0.37 0.1,0.1 0.23,0.16 0.37,0.16l10.9 0c0.14,0 0.27,-0.06 0.37,-0.16 0.09,-0.1 0.15,-0.23 0.15,-0.37l0 -3.01c0,-0.07 -0.01,-0.14 -0.04,-0.21 -0.02,-0.07 -0.06,-0.13 -0.11,-0.18 -0.05,-0.05 -0.1,-0.09 -0.17,-0.11 -0.06,-0.03 -0.13,-0.05 -0.2,-0.05zm-5.46 1.05l2.96 0 -0.55 1.99 -2.94 0 0.53 -1.99zm-1.6 1.99l-1.01 0 0.53 -1.99 1.01 0 -0.53 1.99zm-3.32 -1.99l1.78 0 -0.53 1.99 -1.3 0 0 -1.99 0.05 0zm9.86 1.99l-1.46 0 0.54 -1.99 0.93 0 0 1.99 -0.01 0zm10.14 13.49c-3.86,3.92 -9.19,6.35 -15.07,6.35 -5.88,0 -11.21,-2.43 -15.06,-6.35 -3.86,-3.92 -6.24,-9.34 -6.24,-15.32 0,-5.99 2.38,-11.4 6.24,-15.33 3.85,-3.92 9.18,-6.35 15.06,-6.35 5.88,0 11.21,2.43 15.07,6.35 3.85,3.93 6.23,9.34 6.23,15.33 0,5.98 -2.38,11.4 -6.23,15.32z"/>
 </g>
</svg>
