<svg width="66" height="66" viewBox="0 0 66 66" fill="none" xmlns="http://www.w3.org/2000/svg">
<g filter="url(#filter0_d)">
<circle cx="33" cy="29" r="15" fill="#298BFF"/>
<circle cx="33" cy="29" r="14.5" stroke="white"/>
</g>
<path d="M35.3346 31.4792C35.3346 32.5262 34.4858 33.375 33.4388 33.375H29.0638C28.0168 33.375 27.168 32.5262 27.168 31.4792V26.5208C27.168 25.4738 28.0168 24.625 29.0638 24.625H33.4388C34.4858 24.625 35.3346 25.4738 35.3346 26.5208V31.4792ZM38.6958 25.4378C38.7854 25.5432 38.8346 25.6771 38.8346 25.8156V32.1843C38.8346 32.5065 38.5735 32.7676 38.2513 32.7676C38.1129 32.7676 37.979 32.7184 37.8735 32.6288L35.918 30.9664V27.033L37.8735 25.3711C38.119 25.1624 38.4871 25.1923 38.6958 25.4378Z" fill="white"/>
<defs>
<filter id="filter0_d" x="0" y="0" width="66" height="66" filterUnits="userSpaceOnUse" color-interpolation-filters="sRGB">
<feFlood flood-opacity="0" result="BackgroundImageFix"/>
<feColorMatrix in="SourceAlpha" type="matrix" values="0 0 0 0 0 0 0 0 0 0 0 0 0 0 0 0 0 0 127 0"/>
<feOffset dy="4"/>
<feGaussianBlur stdDeviation="9"/>
<feColorMatrix type="matrix" values="0 0 0 0 0 0 0 0 0 0 0 0 0 0 0 0 0 0 0.18 0"/>
<feBlend mode="normal" in2="BackgroundImageFix" result="effect1_dropShadow"/>
<feBlend mode="normal" in="SourceGraphic" in2="effect1_dropShadow" result="shape"/>
</filter>
</defs>
</svg>
