<?xml version="1.0" encoding="UTF-8"?>
<!DOCTYPE svg PUBLIC "-//W3C//DTD SVG 1.1//EN" "http://www.w3.org/Graphics/SVG/1.1/DTD/svg11.dtd">
<svg xmlns="http://www.w3.org/2000/svg" xml:space="preserve" width="115px" height="116px" version="1.1" style="shape-rendering:geometricPrecision; text-rendering:geometricPrecision; image-rendering:optimizeQuality; fill-rule:nonzero; clip-rule:evenodd" viewBox="0 0 14.05 14.09" xmlns:xlink="http://www.w3.org/1999/xlink">
 <g>
   <path fill="#E41A4C" d="M8.28 6.42c0.88,0.18 1.47,0.54 1.47,0.96 0,0.59 -1.21,1.07 -2.71,1.07 -1.49,0 -2.7,-0.48 -2.7,-1.07 0,-0.42 0.59,-0.78 1.46,-0.96 -0.51,0.15 -0.84,0.39 -0.84,0.67 0,0.45 0.93,0.82 2.08,0.82 1.15,0 2.09,-0.37 2.09,-0.82 0,-0.28 -0.34,-0.52 -0.85,-0.67zm-3.52 -4.13c0,-1.27 1.02,-2.29 2.28,-2.29 1.27,0 2.29,1.02 2.29,2.29 -0.07,0.78 -0.76,2.22 -2.29,4.72 -1.54,-2.5 -2.16,-4.05 -2.28,-4.72zm3.35 0c0,-0.59 -0.48,-1.07 -1.07,-1.07 -0.58,0 -1.06,0.48 -1.06,1.07 0,0.58 0.48,1.06 1.06,1.06 0.59,0 1.07,-0.48 1.07,-1.06z"/>
 </g>
</svg>
