<?xml version="1.0" encoding="UTF-8"?>
<!DOCTYPE svg PUBLIC "-//W3C//DTD SVG 1.1//EN" "http://www.w3.org/Graphics/SVG/1.1/DTD/svg11.dtd">
<svg xmlns="http://www.w3.org/2000/svg" xml:space="preserve" width="140px" height="140px" version="1.1" style="shape-rendering:geometricPrecision; text-rendering:geometricPrecision; image-rendering:optimizeQuality; fill-rule:evenodd; clip-rule:evenodd" viewBox="0 0 107 106.99" xmlns:xlink="http://www.w3.org/1999/xlink">
 <g>
  <path fill="#FFFFFF" d="M88.63 70.69c-1.31,-0.91 -2.66,-4.28 -3.48,-9.05 -0.72,-4.19 -0.96,-8.49 -0.95,-11.51l0 -10.35c0,-15.19 -13.74,-27.55 -30.66,-27.55 -16.93,0 -30.67,12.36 -30.67,27.55l0 10.31c0,0.78 -0.03,2.08 -0.12,3.72 -0.15,2.68 -0.44,5.35 -0.87,7.82 -0.84,4.78 -2.2,8.15 -3.52,9.07 -2.96,2.04 -2.15,6.4 1.73,7.19 0.07,0.01 0.15,0.02 0.22,0.03 0.01,0.01 0.01,0.01 0.02,0.01 4.71,0.88 9.44,1.58 14.2,2.08 1.31,8.34 9.3,14.76 18.97,14.76 9.66,0 17.66,-6.42 18.97,-14.76 4.77,-0.5 9.51,-1.2 14.22,-2.09 0.07,-0.01 0.14,-0.02 0.22,-0.04 3.88,-0.78 4.69,-5.14 1.72,-7.19zm-35.13 -48.09c-10.57,0 -19.17,7.7 -19.17,17.18 0,1.9 1.72,3.44 3.84,3.44 2.11,0 3.83,-1.54 3.83,-3.44 0,-5.68 5.16,-10.31 11.5,-10.31 2.12,0 3.83,-1.54 3.83,-3.44 0,-1.89 -1.71,-3.43 -3.83,-3.43zm0 65.29c-5.15,0 -9.51,-3.03 -10.97,-7.21 7.31,0.44 14.64,0.45 21.94,0 -1.47,4.18 -5.82,7.21 -10.97,7.21zm15.31 -14.43c-0.14,0 -0.28,0.01 -0.43,0.02 -9.9,0.86 -19.87,0.86 -29.76,0 -0.15,-0.01 -0.29,-0.02 -0.43,-0.02 -3.89,-0.35 -7.76,-0.83 -11.61,-1.45 1.31,-2.42 2.22,-5.56 2.88,-9.32 0.82,-4.68 1.09,-9.34 1.08,-12.6l0 -10.31c0,-11.4 10.31,-20.68 23,-20.68 12.68,0 22.99,9.28 22.99,20.68l0 10.31c-0.01,3.36 0.25,7.98 1.04,12.59 0.65,3.77 1.54,6.9 2.85,9.33 -3.85,0.62 -7.73,1.1 -11.61,1.45z"/>
 </g>
</svg>
