<?xml version="1.0" encoding="UTF-8"?>
<!DOCTYPE svg PUBLIC "-//W3C//DTD SVG 1.1//EN" "http://www.w3.org/Graphics/SVG/1.1/DTD/svg11.dtd">
<svg xmlns="http://www.w3.org/2000/svg" xml:space="preserve" width="500px" height="500px" version="1.1" style="shape-rendering:geometricPrecision; text-rendering:geometricPrecision; image-rendering:optimizeQuality; fill-rule:nonzero; clip-rule:evenodd" viewBox="0 0 482.64 482.64" xmlns:xlink="http://www.w3.org/1999/xlink">
 <g>
   <path fill="#F7A5BD" d="M345.89 328.9c0.01,25.6 -10.16,50.16 -28.26,68.26 -18.11,18.11 -42.66,28.27 -68.27,28.27 -4.03,0.01 -8.06,-0.25 -12.06,-0.81 -48.27,-6.05 -84.48,-47.1 -84.46,-95.76 0.02,-48.65 36.26,-89.67 84.54,-95.68 3.97,-0.55 7.98,-0.82 11.98,-0.81 21.73,-0.06 42.83,7.26 59.85,20.76 5.14,4.07 9.85,8.66 14.08,13.67 14.66,17.36 22.67,39.37 22.6,62.1z"/>
   <path fill="#F2E4E6" d="M321.76 328.88c0.02,48.64 -36.19,89.69 -84.46,95.72 -48.27,-6.05 -84.48,-47.1 -84.46,-95.75 0.02,-48.66 36.26,-89.68 84.54,-95.69 17.43,2.12 33.94,9.03 47.7,19.95 5.14,4.07 9.85,8.66 14.08,13.67 14.66,17.36 22.67,39.38 22.6,62.1z"/>
   <path fill="#F2E4E6" d="M448.93 169.7l-0.8 1.36c-31.45,-16.97 -86.87,-45.77 -143.83,-70.22 36.93,5.55 105.46,17.05 128.55,28.64 32.17,16.08 16.08,40.22 16.08,40.22z"/>
   <path fill="#F2E4E6" d="M322.16 268.72c11.99,-20.19 26.06,-42.47 23.73,-66.84 -2.4,-16.95 -9.89,-32.77 -21.48,-45.37l-2.41 -2.66 -0.24 -0.24 109.56 51.89 16.73 7.88c9.05,4.3 19.87,0.65 24.47,-8.25 4.6,-8.89 1.32,-19.83 -7.42,-24.73 -4.34,-2.41 -10.05,-5.55 -16.97,-9.25l0 -0.08c-31.45,-16.97 -86.87,-45.77 -143.83,-70.22 -11.26,-4.83 -22.52,-9.42 -33.78,-13.76 -0.28,-0.17 -0.58,-0.3 -0.89,-0.4 -44.24,-17.14 -86.79,-29.6 -116.79,-29.6 -96.53,0 -144.8,48.26 -144.8,48.26l32.42 77.87 7.8 18.66 69.99 -38.21c8.61,-4.66 18.4,-6.68 28.15,-5.79 8.5,0.83 16.6,4 23.41,9.17 9.36,7.39 17.25,16.48 23.24,26.78 6.84,11.43 13.76,22.2 19.95,31.78 4.99,7.4 9.5,14.07 13.44,19.79 0.88,1.28 1.69,2.49 2.49,3.61 5.35,7.61 15.64,9.83 23.66,5.13 8.01,-4.7 11.09,-14.76 7.07,-23.14 -3.82,-7.58 -6.99,-15.46 -9.49,-23.57 -3.31,-9.58 -3.59,-19.94 -0.81,-29.68 3.14,-9.42 11.99,-10.7 21,-9.18 6.13,1.23 12.07,3.23 17.7,5.96 13.48,5.79 22.79,18.39 24.37,32.98 -0.3,10.84 -3.38,21.41 -8.93,30.73 1.09,2.11 2.06,4.28 2.89,6.51l15.77 23.97z"/>
   <path fill="#FA7F9E" d="M474.6 196.65c-0.01,6.37 -3.28,12.28 -8.67,15.67 -5.38,3.4 -12.13,3.8 -17.87,1.06l-16.74 -7.88c8.56,0.24 16.19,-5.38 18.47,-13.63 2.29,-8.26 -1.35,-17 -8.81,-21.2 -4.35,-2.41 -10.06,-5.55 -16.97,-9.25l0 -0.08c-31.46,-16.97 -86.88,-45.77 -143.83,-70.22 -3.22,-1.37 -6.44,-2.74 -9.65,-4.03 11.26,4.35 22.52,8.93 33.78,13.76 56.95,24.45 112.38,53.25 143.83,70.22l0 0.08c6.92,3.7 12.62,6.84 16.97,9.25 5.87,3.3 9.5,9.52 9.49,16.25z"/>
   <path fill="#F2E4E6" d="M431.32 205.5c-2.57,-0.08 -5.1,-0.71 -7.4,-1.85l-99.51 -47.14 -2.41 -2.65 -0.24 -0.25 109.56 51.89z"/>
   <path fill="#FA7F9E" d="M323.29 266.79c-4.23,-5.02 -8.94,-9.6 -14.08,-13.67 -0.72,-2.86 -1.66,-5.66 -2.81,-8.37 9.25,-16.33 17.13,-33.87 15.36,-52.61 -2.19,-15.64 -8.77,-30.34 -18.98,-42.39 -0.32,-0.29 -0.5,-0.7 -0.49,-1.13 0.01,-0.88 0.73,-1.6 1.61,-1.61 0.23,0.02 0.44,0.07 0.65,0.17l19.86 9.33c11.59,12.6 19.08,28.42 21.48,45.37 2.25,23.56 -10.86,45.2 -22.6,64.91z"/>
   <path fill="white" d="M220.56 236.79c-43.33,13.53 -71.37,55.44 -67.34,100.66 4.03,45.22 39.04,81.51 84.08,87.17 4,0.55 8.03,0.82 12.07,0.8 4,-0.03 8,-0.3 11.98,-0.82 -41.11,-5.2 -74.3,-36.07 -82.48,-76.68 -8.18,-40.62 10.48,-81.92 46.36,-102.63l-4.67 -8.5z"/>
   <path fill="white" d="M48.26 201.88l19.65 -10.73 -3.32 -7.93 -32.41 -77.87c0,0 43.41,-43.27 130.09,-47.81 -3.23,-0.24 -6.44,-0.45 -9.43,-0.45 -96.53,0 -144.8,48.26 -144.8,48.26l32.42 77.87 7.8 18.66z"/>
   <path fill="white" d="M152.84 49.04c18.1,0.75 36.06,3.55 53.53,8.35 8.7,2.03 17.03,4.94 25.56,7.37l25.04 8.57c72.98,28.26 143.85,61.71 212.04,100.12l-7.82 14.06c-67.45,-37.99 -137.55,-71.1 -209.74,-99.06 -32.27,-11.55 -65.82,-22.06 -98.61,-23.32l0 -16.09 0 0z"/>
   <path fill="#E41A4C" d="M243.95 323.21c1.57,1.57 4.11,1.57 5.69,0l0.06 -0.07c3.57,-3.57 5.32,-7.41 5.24,-11.53 0,-4.19 -1.86,-8.15 -5.59,-11.88 -4.19,-4.19 -8.23,-6.13 -12.11,-5.82 -3.88,0.16 -7.61,2.02 -11.18,5.59l-0.06 0.07c-1.57,1.57 -1.57,4.12 0,5.69l17.95 17.95zm-24.14 -247.72c0.91,-0.53 1.72,-1.23 2.38,-2.05 0.67,-0.81 1.18,-1.74 1.51,-2.75 0.59,-2.04 0.38,-4.24 -0.59,-6.13 -1.09,-1.87 -2.83,-3.26 -4.89,-3.9 -2.06,-0.6 -4.27,-0.39 -6.18,0.58l-1.25 0.88c-0.42,0.35 -0.79,0.76 -1.09,1.21 -0.35,0.39 -0.64,0.82 -0.85,1.29 -0.23,0.49 -0.42,0.99 -0.58,1.51 -0.51,2.06 -0.25,4.24 0.73,6.12 0.53,0.91 1.22,1.72 2.05,2.38 2.49,2.01 5.93,2.35 8.76,0.86zm249.2 97.96l0 0 -0.01 -0.01 -0.03 -0.02 -0.01 0c-3.41,-1.87 -6.84,-3.7 -10.26,-5.55 2.54,-6.45 2.98,-13.54 1.26,-20.25 -3.73,-11.49 -12.33,-20.76 -23.51,-25.33 -23.99,-12.04 -92,-23.54 -130.64,-29.35 -16.12,-6.86 -32.37,-13.44 -48.84,-19.61l-7.69 -2.66c-2.72,-0.98 -5.75,-0.42 -7.95,1.46 -2.19,1.87 -3.21,4.78 -2.67,7.61 0.54,2.84 2.55,5.17 5.28,6.11l7.51 2.6c72.19,27.96 142.29,61.07 209.74,99.06l0.01 -0.01 0.03 0.03c4.9,2.82 6.71,9 4.1,14.01 -2.62,5.01 -8.72,7.06 -13.83,4.65l-126.3 -59.85c-3.49,-1.61 -7.65,-0.48 -9.84,2.69 -2.23,3.21 -1.89,7.56 0.82,10.38 11.65,11.74 19.25,26.88 21.7,43.23 1.69,17.62 -6.61,34.5 -16.11,50.87 -3.76,-3.56 -7.77,-6.83 -12.02,-9.79 6.71,-11.03 10.41,-23.62 10.72,-36.52 -1.68,-17.55 -12.76,-32.81 -28.93,-39.85 -8.82,-4.24 -25.48,-10.56 -37.92,-5.31 -5.71,2.41 -10.06,7.23 -11.88,13.15 -6.47,19.31 1.31,39.95 10.67,59.38 0.02,0.03 0.34,0.97 0.36,1.01 1.1,3.14 0.53,6.62 -1.52,9.24 -2.04,2.62 -5.28,4.02 -8.59,3.71 -2.86,-0.23 -5.47,-1.73 -7.11,-4.08l-2.73 -3.94c-1.78,-2.57 -3.69,-5.31 -5.65,-8.21 -9.64,-14.36 -18.81,-28.71 -27.22,-42.61 -6.53,-11.17 -15.09,-21.01 -25.25,-29.03 -17.54,-13.13 -41.16,-14.72 -60.3,-4.05l-62.15 33.92 -34.55 -82.94c13.09,-10.69 58.5,-42.46 135.14,-42.46l15.13 1.01c5.08,0.67 10.2,1.67 15.3,2.48 4.28,0.67 8.37,-2.07 9.37,-6.29 0.49,-2.12 0.08,-4.34 -1.13,-6.14 -1.2,-1.8 -3.1,-3.03 -5.24,-3.38 -5.49,-0.88 -10.92,-1.93 -16.46,-2.66l-16.97 -1.11c-98.73,0 -148.42,48.56 -150.48,50.62 -2.31,2.31 -3,5.78 -1.74,8.79l40.22 96.52c0.88,2.11 2.61,3.74 4.76,4.5 2.15,0.75 4.52,0.56 6.52,-0.53l69.97 -38.21c13.55,-7.62 30.31,-6.57 42.8,2.69 8.57,6.8 15.78,15.13 21.28,24.58 6.9,11.39 14.37,23.07 22.1,34.81 -41.02,17.5 -66.43,59.09 -63.28,103.58 3.15,44.49 34.16,82.09 77.24,93.63 43.08,11.55 88.74,-5.49 113.72,-42.44 24.98,-36.95 23.78,-85.67 -2.98,-121.34 11.41,-19.26 23.24,-40.88 20.93,-65.11 -1.04,-9.49 -3.8,-18.73 -8.14,-27.24l98.87 46.85c12.97,6.14 28.47,0.89 35.04,-11.86 6.58,-12.75 1.87,-28.42 -10.66,-35.43zm-39.76 -36.78c6.92,2.63 12.41,8.05 15.13,14.94 0.72,2.77 0.69,5.69 -0.08,8.46 -26.55,-14.22 -53.36,-27.96 -80.54,-40.96 22.4,3.46 44.36,9.35 65.49,17.56zm-172.25 43.62c0.36,-1.54 1.43,-2.82 2.89,-3.43 8.56,-1.24 17.28,0.53 24.68,5 10.75,4.53 18.29,14.42 19.82,25.98 -0.45,9.74 -3.35,19.21 -8.44,27.53 -9.41,-4.7 -19.48,-7.92 -29.87,-9.55 -7.51,-15.83 -13.56,-32.16 -9.08,-45.53zm54.98 211.2c-22.37,22.37 -54.97,31.11 -85.52,22.92 -30.56,-8.18 -54.43,-32.05 -62.61,-62.6 -8.19,-30.55 0.54,-63.16 22.91,-85.52 8.73,-8.67 19.17,-15.4 30.67,-19.77 0.72,1.04 1.5,2.19 2.18,3.17l2.73 3.93c4.37,6.27 11.3,10.28 18.91,10.94 0.77,0.06 1.53,0.1 2.29,0.1 12.8,0.01 23.69,-9.36 25.59,-22.02 9.19,2.08 17.98,5.63 26.02,10.52 6.12,3.69 11.76,8.09 16.82,13.13 1.85,1.85 3.55,3.77 5.16,5.68 29.24,35.25 27.01,86.92 -5.15,119.52zm-53.73 -59.67c-1.57,1.58 -1.56,4.13 0.01,5.7l0 0c1.57,1.57 4.13,1.58 5.7,0.01l17.02 -17.02c1.57,-1.57 4.11,-1.57 5.69,0l2.92 2.93c1.57,1.57 1.57,4.12 0,5.69l-17.02 17.02c-1.57,1.57 -1.57,4.11 0,5.69l10.97 10.96c1.57,1.57 1.57,4.12 0,5.69l-10.5 10.5c-1.57,1.57 -4.12,1.57 -5.69,0l-10.96 -10.97c-1.57,-1.57 -4.12,-1.57 -5.69,0l-1.53 1.53c-1.57,1.57 -4.12,1.57 -5.69,0l-2.45 -2.45c-1.48,-1.48 -1.58,-3.85 -0.22,-5.45l1.83 -2.15c1.36,-1.59 1.26,-3.97 -0.22,-5.45l-0.35 -0.35c-1.57,-1.57 -4.12,-1.57 -5.69,0l-1.53 1.53c-1.57,1.57 -4.12,1.57 -5.69,0l-2.45 -2.45c-1.48,-1.48 -1.58,-3.85 -0.22,-5.45l1.83 -2.15c1.36,-1.6 1.26,-3.97 -0.22,-5.45l-29 -29c-1.57,-1.57 -1.57,-4.12 0,-5.69l16.83 -16.83c3.65,-3.65 7.53,-6.68 11.65,-9.09 4.03,-2.48 8.15,-4.03 12.34,-4.65 4.19,-0.78 8.35,-0.51 12.46,0.81 4.12,1.32 8.07,3.88 11.88,7.69 3.8,3.8 6.32,7.8 7.57,11.99 1.24,4.19 1.47,8.38 0.7,12.58 -0.7,4.11 -2.26,8.22 -4.66,12.34 -2.49,4.04 -5.47,7.8 -8.97,11.29l-0.65 0.65z"/>
 </g>
</svg>
