<svg width="20" height="20" viewBox="0 0 20 20" fill="none" xmlns="http://www.w3.org/2000/svg">
<path d="M16.9234 7.69261H16.5273C16.446 7.46218 16.3527 7.23719 16.2477 7.01765L16.5284 6.73689C17.4257 5.83958 17.4265 4.37568 16.5269 3.47029C15.6249 2.57373 14.161 2.57486 13.2637 3.47179L12.9829 3.75255C12.7634 3.64757 12.538 3.55461 12.308 3.47292V3.07722C12.308 1.8045 11.273 0.769531 10.0003 0.769531C8.72758 0.769531 7.69261 1.8045 7.69261 3.07722V3.47329C7.46218 3.55461 7.23719 3.64795 7.01765 3.75293L6.73689 3.47217C5.83996 2.57486 4.37605 2.57448 3.47029 3.47367C2.57373 4.37568 2.57448 5.83958 3.47179 6.73689L3.75255 7.01765C3.64757 7.23719 3.55461 7.46255 3.47292 7.69261H3.07722C1.8045 7.69261 0.769531 8.72758 0.769531 10.0003C0.769531 11.273 1.8045 12.308 3.07722 12.308H3.47329C3.55461 12.5384 3.64795 12.7634 3.75293 12.9829L3.47217 13.2637C2.57486 14.161 2.57411 15.6249 3.47367 16.5303C3.92458 16.9784 4.51521 17.2023 5.10566 17.2023C5.69723 17.2023 6.28805 16.978 6.73689 16.5288L7.01765 16.248C7.23719 16.353 7.46255 16.446 7.69261 16.5277V16.9234C7.69261 18.1961 8.72758 19.2311 10.0003 19.2311C11.273 19.2311 12.308 18.1961 12.308 16.9234V16.5273C12.5384 16.446 12.7634 16.3527 12.9829 16.2477L13.2637 16.5284C13.7122 16.9773 14.3022 17.2015 14.8934 17.2015C15.4848 17.2015 16.0771 16.9769 16.5299 16.5269C17.4265 15.6249 17.4257 14.161 16.5284 13.2637L16.2477 12.9829C16.3527 12.7634 16.4456 12.538 16.5273 12.308H16.9234C18.1961 12.308 19.2311 11.273 19.2311 10.0003C19.2311 8.72758 18.1961 7.69261 16.9234 7.69261ZM16.9234 10.7695H15.9618C15.9453 10.7695 15.9299 10.7733 15.9138 10.7746C15.8841 10.7765 15.855 10.778 15.8261 10.7834C15.8037 10.7872 15.7823 10.7938 15.7607 10.7996C15.7346 10.8069 15.7083 10.8139 15.6833 10.8238C15.6615 10.8323 15.6411 10.8426 15.6202 10.8529C15.5968 10.8649 15.5735 10.8764 15.5511 10.8907C15.5318 10.9027 15.5145 10.9164 15.4965 10.9303C15.4749 10.9468 15.4538 10.963 15.4341 10.9814C15.418 10.9968 15.4037 11.0133 15.3892 11.0298C15.371 11.0503 15.3534 11.0704 15.3376 11.0925C15.3237 11.1119 15.3122 11.1326 15.3002 11.153C15.2876 11.175 15.2745 11.1964 15.2638 11.2199C15.2525 11.2445 15.2441 11.2708 15.2352 11.2969C15.23 11.3134 15.2215 11.3288 15.2172 11.3461C15.0906 11.8364 14.8968 12.3042 14.6418 12.7356C14.633 12.751 14.6281 12.7672 14.62 12.7829C14.6072 12.8079 14.5945 12.8325 14.5849 12.8588C14.5764 12.8819 14.5702 12.9054 14.5642 12.9287C14.5577 12.9529 14.5511 12.9773 14.5468 13.0019C14.5426 13.0273 14.5411 13.0522 14.5394 13.0776C14.5379 13.1018 14.5361 13.1253 14.5368 13.1495C14.5376 13.1745 14.5408 13.1987 14.5438 13.2237C14.5468 13.2483 14.55 13.2725 14.5552 13.2964C14.5607 13.3202 14.5684 13.343 14.5761 13.3664C14.5838 13.3903 14.5915 13.4138 14.6014 13.4369C14.6119 13.4603 14.6245 13.4827 14.6377 13.5052C14.6491 13.5257 14.6604 13.5462 14.6737 13.5657C14.6902 13.5895 14.71 13.6115 14.7291 13.6333C14.74 13.6457 14.7485 13.6596 14.7599 13.671L15.4407 14.3518C15.7399 14.651 15.7391 15.1408 15.4422 15.4396C15.1402 15.7399 14.651 15.7406 14.3514 15.4411L13.6707 14.7603C13.6585 14.7475 13.6438 14.7387 13.6307 14.7276C13.6095 14.7092 13.5892 14.6906 13.5664 14.6748C13.5456 14.6604 13.5242 14.6487 13.5022 14.6365C13.4806 14.6245 13.46 14.6123 13.4376 14.6022C13.4138 14.5915 13.3892 14.5838 13.3646 14.5757C13.3422 14.5684 13.3199 14.561 13.2968 14.5558C13.2725 14.5503 13.2479 14.5471 13.223 14.5441C13.1984 14.5411 13.1741 14.5379 13.1492 14.5372C13.1253 14.5364 13.1018 14.5383 13.0784 14.54C13.0526 14.5415 13.0273 14.543 13.0015 14.5471C12.9773 14.5511 12.9538 14.558 12.93 14.5642C12.9058 14.5706 12.8819 14.5764 12.8584 14.5853C12.8325 14.5948 12.8079 14.6076 12.7833 14.62C12.7675 14.6281 12.7514 14.6326 12.736 14.6418C12.3042 14.8968 11.8368 15.0906 11.3465 15.2172C11.3292 15.2219 11.3142 15.2296 11.2976 15.2352C11.2711 15.2441 11.2449 15.2525 11.2199 15.2642C11.1972 15.2745 11.1761 15.2873 11.1545 15.2995C11.1333 15.3119 11.1119 15.3237 11.0918 15.3383C11.0708 15.3537 11.0514 15.3706 11.0319 15.3875C11.0142 15.4029 10.9964 15.4183 10.9802 15.4352C10.9626 15.4538 10.9472 15.4737 10.9318 15.4942C10.9171 15.5134 10.9023 15.5322 10.8895 15.5526C10.8764 15.5735 10.8653 15.5953 10.8542 15.6176C10.843 15.6396 10.8319 15.6615 10.8227 15.6848C10.8133 15.7087 10.8069 15.7338 10.8 15.7585C10.7938 15.781 10.7868 15.8037 10.7827 15.8272C10.7776 15.8554 10.7757 15.8841 10.7742 15.9126C10.7733 15.9292 10.7695 15.9449 10.7695 15.9618V16.9234C10.7695 17.3476 10.4245 17.6926 10.0003 17.6926C9.57606 17.6926 9.23107 17.3476 9.23107 16.9234V15.9618C9.23107 15.9449 9.22731 15.9292 9.226 15.9123C9.22412 15.8833 9.22262 15.855 9.21755 15.8268C9.21342 15.8033 9.20684 15.7806 9.20027 15.7581C9.19332 15.7329 9.18675 15.7083 9.17755 15.6845C9.16872 15.661 9.15726 15.6396 9.146 15.6172C9.13492 15.5953 9.12421 15.5735 9.11069 15.5522C9.09754 15.5318 9.08308 15.513 9.06843 15.4938C9.05303 15.4737 9.03764 15.4538 9.01998 15.4349C9.00383 15.418 8.98599 15.4026 8.96834 15.3872C8.94881 15.3699 8.92946 15.353 8.90843 15.338C8.88833 15.3237 8.8673 15.3119 8.8457 15.2991C8.82411 15.2869 8.80345 15.2741 8.78035 15.2638C8.75537 15.2521 8.72908 15.2437 8.7026 15.2349C8.68607 15.2296 8.67105 15.2215 8.65377 15.2168C8.16342 15.0903 7.69561 14.8964 7.26424 14.6414C7.24921 14.6326 7.23306 14.6275 7.21766 14.62C7.19231 14.6072 7.16714 14.5941 7.14066 14.5845C7.11831 14.5761 7.09521 14.5706 7.07268 14.5646C7.0477 14.5577 7.02254 14.5511 6.99718 14.5468C6.97296 14.543 6.94873 14.5415 6.9245 14.54C6.89953 14.5383 6.87455 14.5364 6.84957 14.5372C6.82572 14.5379 6.80225 14.5411 6.77877 14.5441C6.75304 14.5471 6.72769 14.5503 6.70252 14.5562C6.67999 14.561 6.65802 14.5687 6.63604 14.5757C6.61107 14.5838 6.58684 14.5915 6.56261 14.6022C6.53989 14.6123 6.51886 14.6245 6.49688 14.6369C6.47566 14.6487 6.45406 14.6604 6.43378 14.6745C6.41031 14.6906 6.38909 14.7096 6.36768 14.7284C6.35491 14.7394 6.34063 14.7481 6.3288 14.7603L5.64802 15.4411C5.34867 15.7402 4.85945 15.7395 4.56028 15.4426C4.25999 15.1402 4.25924 14.651 4.55878 14.3518L5.23956 13.671C5.25139 13.6592 5.25947 13.6457 5.27036 13.6333C5.28951 13.6115 5.30923 13.5895 5.32576 13.5657C5.33909 13.5462 5.35036 13.5257 5.36182 13.5052C5.37459 13.4827 5.38755 13.4607 5.39806 13.4369C5.40802 13.4138 5.41572 13.3903 5.42342 13.3664C5.43111 13.3433 5.43881 13.3202 5.44407 13.2964C5.44952 13.2722 5.45252 13.2479 5.45572 13.2237C5.45872 13.1991 5.46229 13.1745 5.46267 13.1495C5.46342 13.1253 5.46154 13.1018 5.45985 13.0776C5.45835 13.0522 5.45684 13.0273 5.45252 13.0019C5.44839 12.9773 5.44182 12.9529 5.43525 12.9287C5.42924 12.9054 5.42342 12.8819 5.41459 12.8588C5.40482 12.8325 5.39224 12.8079 5.37947 12.7829C5.37177 12.7672 5.36689 12.751 5.35769 12.7356C5.10265 12.3037 4.90884 11.8364 4.78226 11.3461C4.77757 11.3288 4.76949 11.3134 4.76424 11.2969C4.75522 11.2708 4.74715 11.2449 4.73607 11.2203C4.72536 11.1968 4.71221 11.175 4.69944 11.153C4.68761 11.1326 4.67616 11.1119 4.66226 11.0925C4.64648 11.0704 4.62883 11.0503 4.61061 11.0304C4.59578 11.0133 4.58151 10.9968 4.56535 10.9814C4.54601 10.9633 4.52535 10.9472 4.50413 10.931C4.48573 10.9168 4.46807 10.9031 4.44835 10.8903C4.42676 10.8764 4.40422 10.8653 4.3815 10.8539C4.3599 10.843 4.33868 10.8319 4.31614 10.8231C4.29192 10.8139 4.26732 10.8069 4.24177 10.8C4.21924 10.7938 4.19651 10.7868 4.17304 10.7827C4.14524 10.7776 4.11726 10.7761 4.08872 10.7742C4.07257 10.7733 4.05604 10.7695 4.03876 10.7695H3.07722C2.65298 10.7695 2.30799 10.4245 2.30799 10.0003C2.30799 9.57606 2.65298 9.23107 3.07722 9.23107H4.03801H4.03951C4.04064 9.23107 4.04177 9.23032 4.04346 9.23032C4.12027 9.22994 4.19332 9.21492 4.26337 9.19332C4.27689 9.18919 4.28985 9.186 4.303 9.18112C4.37154 9.15614 4.43483 9.12177 4.49268 9.07951C4.50338 9.07182 4.51258 9.06299 4.52254 9.05454C4.58113 9.00684 4.63447 8.95331 4.67653 8.89115C4.67766 8.88946 4.67804 8.88758 4.67916 8.88608C4.72179 8.82185 4.75222 8.74993 4.77419 8.67405C4.77644 8.66692 4.78151 8.6611 4.78339 8.6534C4.90997 8.16305 5.10378 7.69524 5.35881 7.26367C5.36764 7.24846 5.37252 7.23231 5.3806 7.21653C5.39337 7.19137 5.40614 7.16677 5.41572 7.14066C5.42417 7.11756 5.43036 7.09409 5.43637 7.07061C5.44295 7.04639 5.44952 7.02216 5.45384 6.99756C5.45797 6.97221 5.45947 6.94723 5.46116 6.92188C5.46267 6.89765 5.46454 6.87417 5.46379 6.84995C5.46304 6.82497 5.45985 6.80074 5.45684 6.77577C5.45384 6.75098 5.45065 6.72675 5.44539 6.7029C5.43994 6.67924 5.43224 6.65651 5.42454 6.63304C5.41684 6.60919 5.40914 6.58571 5.39919 6.56261C5.38867 6.53914 5.37609 6.51679 5.36294 6.49407C5.35149 6.47378 5.34022 6.45331 5.32689 6.43378C5.31036 6.40993 5.29064 6.38796 5.27148 6.36599C5.26059 6.35378 5.25214 6.33988 5.24068 6.32843L4.55991 5.64765C4.26074 5.34829 4.26149 4.8587 4.55841 4.55991C4.86076 4.25999 5.34999 4.25924 5.64915 4.55841L6.32993 5.23918C6.33143 5.24068 6.33293 5.24144 6.33462 5.24256C6.34383 5.25177 6.35453 5.25834 6.36448 5.26717C6.4011 5.29984 6.4396 5.32876 6.48036 5.35337C6.49651 5.36294 6.51303 5.37102 6.52994 5.37947C6.56881 5.39919 6.60881 5.41496 6.64956 5.42755C6.66609 5.43262 6.68224 5.43844 6.69914 5.44219C6.75567 5.45534 6.81295 5.46417 6.87098 5.46417C6.8723 5.46417 6.87342 5.46454 6.87455 5.46454C6.8768 5.46454 6.87906 5.46379 6.8815 5.46379C6.93878 5.46304 6.99531 5.45459 7.05146 5.44107C7.06836 5.43675 7.08489 5.43149 7.10179 5.42604C7.14799 5.41177 7.19268 5.39299 7.23607 5.36952C7.24527 5.36445 7.2556 5.36294 7.26499 5.35769C7.69693 5.10265 8.16418 4.90884 8.65452 4.78226C8.6718 4.77757 8.68682 4.76987 8.70335 4.76424C8.72983 4.75522 8.75612 4.74677 8.7811 4.73531C8.80382 4.72499 8.82486 4.71221 8.84645 4.70001C8.86768 4.68761 8.88908 4.67559 8.90918 4.66113C8.93021 4.64573 8.94956 4.62883 8.96909 4.61193C8.98693 4.59653 9.00458 4.58113 9.02073 4.56423C9.03839 4.54564 9.05379 4.52573 9.06919 4.50526C9.08383 4.4861 9.09867 4.46713 9.11144 4.44685C9.12459 4.42601 9.13567 4.40422 9.14675 4.38187C9.15802 4.3599 9.1691 4.33793 9.1783 4.31445C9.18769 4.2906 9.19407 4.26562 9.20102 4.24102C9.20722 4.2183 9.21417 4.19576 9.2183 4.17229C9.22337 4.14412 9.22525 4.11538 9.22675 4.08684C9.22731 4.07144 9.23107 4.05566 9.23107 4.03876V3.07722C9.23107 2.65298 9.57606 2.30799 10.0003 2.30799C10.4245 2.30799 10.7695 2.65298 10.7695 3.07722V4.03876C10.7695 4.05566 10.7733 4.07144 10.7746 4.08834C10.7765 4.11726 10.778 4.14562 10.7831 4.17379C10.7872 4.19727 10.7938 4.21999 10.8003 4.24253C10.8073 4.26769 10.8139 4.29229 10.8231 4.31614C10.8319 4.33962 10.8433 4.36103 10.8546 4.38338C10.8657 4.40535 10.8764 4.42713 10.8899 4.44835C10.9031 4.46883 10.9175 4.48761 10.9322 4.50676C10.9476 4.52686 10.963 4.54676 10.9806 4.56573C10.9968 4.58263 11.0146 4.59803 11.0323 4.61343C11.0518 4.63071 11.0711 4.64761 11.0922 4.66264C11.1123 4.67691 11.1333 4.68874 11.1549 4.70151C11.1765 4.71372 11.1972 4.72649 11.2203 4.73682C11.2452 4.74846 11.2715 4.75691 11.298 4.76574C11.3145 4.771 11.3296 4.77907 11.3468 4.78377C11.8372 4.91034 12.305 5.10415 12.7364 5.35919C12.7458 5.36445 12.7557 5.36614 12.7653 5.37139C12.8087 5.39449 12.853 5.41346 12.8992 5.42792C12.9161 5.43337 12.9326 5.43881 12.9495 5.44295C13.0057 5.45647 13.0622 5.46492 13.1195 5.46567C13.1219 5.46567 13.1242 5.46642 13.1264 5.46642C13.1276 5.46642 13.1287 5.46605 13.13 5.46605C13.1877 5.46567 13.2453 5.45722 13.3018 5.44407C13.3187 5.44032 13.3349 5.4345 13.3514 5.42961C13.3925 5.41684 13.4322 5.40107 13.4714 5.38154C13.4883 5.37308 13.5048 5.36501 13.521 5.35524C13.5617 5.33102 13.6002 5.30191 13.6369 5.26923C13.6464 5.26059 13.6572 5.25383 13.6669 5.24444C13.6684 5.24294 13.6699 5.24219 13.6714 5.24106L14.3522 4.56028C14.6519 4.26112 15.1412 4.26262 15.4399 4.55878C15.7402 4.86114 15.741 5.35036 15.4414 5.64953L14.7607 6.3303C14.7488 6.34213 14.7408 6.35566 14.7299 6.36805C14.7107 6.38984 14.691 6.41181 14.6745 6.43566C14.6611 6.45538 14.6499 6.47566 14.6384 6.49613C14.6256 6.51886 14.6127 6.54064 14.6022 6.56449C14.5922 6.58759 14.5845 6.61107 14.5768 6.63492C14.5691 6.65802 14.5614 6.68112 14.5562 6.70497C14.5507 6.72919 14.5477 6.75342 14.5445 6.77764C14.5415 6.80225 14.5379 6.82685 14.5376 6.85183C14.5368 6.87605 14.5387 6.89953 14.5404 6.92375C14.5419 6.94911 14.5434 6.97408 14.5477 6.99962C14.5518 7.02423 14.5584 7.04845 14.565 7.07268C14.571 7.09615 14.5768 7.11944 14.5856 7.14254C14.5952 7.16883 14.608 7.19343 14.6208 7.21841C14.6285 7.23419 14.6333 7.25034 14.6425 7.26574C14.8976 7.69768 15.0914 8.16493 15.218 8.65527C15.2198 8.66297 15.2249 8.66842 15.2272 8.67612C15.2491 8.7518 15.2796 8.82335 15.3218 8.88758C15.3229 8.88908 15.3233 8.89115 15.3244 8.89265C15.3669 8.955 15.4198 9.00834 15.4781 9.05566C15.4884 9.06412 15.4976 9.07294 15.5083 9.08102C15.5661 9.12346 15.6296 9.15726 15.6976 9.18224C15.7107 9.18731 15.7241 9.19069 15.7376 9.19445C15.8077 9.21605 15.8807 9.23069 15.9575 9.23107C15.9588 9.23107 15.96 9.23182 15.9615 9.23182H15.963H16.9234C17.3476 9.23182 17.6926 9.57681 17.6926 10.0011C17.6926 10.4253 17.3476 10.7695 16.9234 10.7695Z" fill="#6D7A8A"/>
<path d="M9.9985 6.1543C7.87789 6.1543 6.15234 7.87984 6.15234 10.0005C6.15234 12.1211 7.87789 13.8466 9.9985 13.8466C12.1191 13.8466 13.8447 12.1211 13.8447 10.0005C13.8447 7.87984 12.1191 6.1543 9.9985 6.1543ZM9.9985 12.448C8.6489 12.448 7.55095 11.3501 7.55095 10.0005C7.55095 8.65085 8.6489 7.5529 9.9985 7.5529C11.3481 7.5529 12.4461 8.65085 12.4461 10.0005C12.4461 11.3501 11.3481 12.448 9.9985 12.448Z" fill="#6D7A8A"/>
</svg>
