<svg width="16" height="20" viewBox="0 0 16 20" fill="none" xmlns="http://www.w3.org/2000/svg">
<mask id="path-1-outside-1" maskUnits="userSpaceOnUse" x="2.44531" y="-0.230469" width="11" height="11" fill="black">
<rect fill="white" x="2.44531" y="-0.230469" width="11" height="11"/>
<path d="M7.89195 9.66252C9.11368 9.66252 10.1715 9.22434 11.036 8.3598C11.9003 7.4954 12.3386 6.43776 12.3386 5.21589C12.3386 3.99443 11.9004 2.93665 11.0359 2.07197C10.1713 1.20772 9.11354 0.769531 7.89195 0.769531C6.67008 0.769531 5.61243 1.20772 4.74803 2.07211C3.88364 2.93651 3.44531 3.99429 3.44531 5.21589C3.44531 6.43776 3.88364 7.49555 4.74803 8.35994C5.61271 9.2242 6.6705 9.66252 7.89195 9.66252ZM5.51313 2.83707C6.1764 2.17381 6.95445 1.8514 7.89195 1.8514C8.82931 1.8514 9.6075 2.17381 10.2709 2.83707C10.9342 3.50047 11.2567 4.27867 11.2567 5.21589C11.2567 6.15338 10.9342 6.93144 10.2709 7.59484C9.6075 8.25825 8.82931 8.58065 7.89195 8.58065C6.95473 8.58065 6.17668 8.25811 5.51313 7.59484C4.84973 6.93158 4.52718 6.15338 4.52718 5.21589C4.52718 4.27867 4.84973 3.50047 5.51313 2.83707Z"/>
</mask>
<path d="M7.89195 9.66252C9.11368 9.66252 10.1715 9.22434 11.036 8.3598C11.9003 7.4954 12.3386 6.43776 12.3386 5.21589C12.3386 3.99443 11.9004 2.93665 11.0359 2.07197C10.1713 1.20772 9.11354 0.769531 7.89195 0.769531C6.67008 0.769531 5.61243 1.20772 4.74803 2.07211C3.88364 2.93651 3.44531 3.99429 3.44531 5.21589C3.44531 6.43776 3.88364 7.49555 4.74803 8.35994C5.61271 9.2242 6.6705 9.66252 7.89195 9.66252ZM5.51313 2.83707C6.1764 2.17381 6.95445 1.8514 7.89195 1.8514C8.82931 1.8514 9.6075 2.17381 10.2709 2.83707C10.9342 3.50047 11.2567 4.27867 11.2567 5.21589C11.2567 6.15338 10.9342 6.93144 10.2709 7.59484C9.6075 8.25825 8.82931 8.58065 7.89195 8.58065C6.95473 8.58065 6.17668 8.25811 5.51313 7.59484C4.84973 6.93158 4.52718 6.15338 4.52718 5.21589C4.52718 4.27867 4.84973 3.50047 5.51313 2.83707Z" fill="#6D7A8A"/>
<path d="M7.89195 9.66252C9.11368 9.66252 10.1715 9.22434 11.036 8.3598C11.9003 7.4954 12.3386 6.43776 12.3386 5.21589C12.3386 3.99443 11.9004 2.93665 11.0359 2.07197C10.1713 1.20772 9.11354 0.769531 7.89195 0.769531C6.67008 0.769531 5.61243 1.20772 4.74803 2.07211C3.88364 2.93651 3.44531 3.99429 3.44531 5.21589C3.44531 6.43776 3.88364 7.49555 4.74803 8.35994C5.61271 9.2242 6.6705 9.66252 7.89195 9.66252ZM5.51313 2.83707C6.1764 2.17381 6.95445 1.8514 7.89195 1.8514C8.82931 1.8514 9.6075 2.17381 10.2709 2.83707C10.9342 3.50047 11.2567 4.27867 11.2567 5.21589C11.2567 6.15338 10.9342 6.93144 10.2709 7.59484C9.6075 8.25825 8.82931 8.58065 7.89195 8.58065C6.95473 8.58065 6.17668 8.25811 5.51313 7.59484C4.84973 6.93158 4.52718 6.15338 4.52718 5.21589C4.52718 4.27867 4.84973 3.50047 5.51313 2.83707Z" stroke="#6D7A8A" stroke-width="0.4" mask="url(#path-1-outside-1)"/>
<mask id="path-2-outside-2" maskUnits="userSpaceOnUse" x="-0.691406" y="8.6875" width="17" height="11" fill="black">
<rect fill="white" x="-0.691406" y="8.6875" width="17" height="11"/>
<path d="M15.6738 14.9659C15.6489 14.6061 15.5984 14.2137 15.5242 13.7993C15.4493 13.3819 15.3528 12.9872 15.2373 12.6265C15.1179 12.2536 14.9557 11.8855 14.755 11.5326C14.547 11.1664 14.3025 10.8475 14.0281 10.5851C13.7412 10.3106 13.3899 10.0899 12.9837 9.92892C12.5789 9.76877 12.1303 9.68764 11.6504 9.68764C11.4619 9.68764 11.2797 9.76497 10.9277 9.99413C10.7111 10.1354 10.4577 10.2988 10.1749 10.4795C9.93302 10.6336 9.6054 10.778 9.20074 10.9087C8.80594 11.0364 8.40508 11.1012 8.00929 11.1012C7.61378 11.1012 7.21292 11.0364 6.81784 10.9087C6.4136 10.7781 6.08584 10.6337 5.84442 10.4796C5.56427 10.3006 5.31074 10.1372 5.09088 9.99399C4.73917 9.76483 4.55691 9.6875 4.36846 9.6875C3.88844 9.6875 3.43997 9.76877 3.03531 9.92906C2.62938 10.0898 2.27796 10.3105 1.99077 10.5853C1.71639 10.8478 1.47187 11.1666 1.26398 11.5326C1.06355 11.8855 0.901291 12.2535 0.78185 12.6266C0.666494 12.9873 0.570011 13.3819 0.495079 13.7993C0.42071 14.2132 0.370427 14.6057 0.345496 14.9663C0.320989 15.3188 0.308594 15.6857 0.308594 16.0565C0.308594 17.0202 0.614943 17.8003 1.21905 18.3757C1.81569 18.9435 2.60501 19.2314 3.56519 19.2314H12.4545C13.4144 19.2314 14.2037 18.9435 14.8005 18.3757C15.4048 17.8007 15.7111 17.0203 15.7111 16.0563C15.711 15.6843 15.6984 15.3174 15.6738 14.9659ZM14.0546 17.5919C13.6603 17.9671 13.1369 18.1495 12.4544 18.1495H3.56519C2.88249 18.1495 2.35909 17.9671 1.96499 17.592C1.57836 17.224 1.39046 16.7216 1.39046 16.0565C1.39046 15.7105 1.40187 15.369 1.42469 15.0411C1.44694 14.7194 1.49244 14.366 1.55991 13.9905C1.62653 13.6196 1.71132 13.2716 1.81217 12.9565C1.90893 12.6544 2.04091 12.3552 2.20458 12.067C2.36078 11.7924 2.5405 11.5567 2.73882 11.3669C2.92432 11.1892 3.15813 11.0439 3.43363 10.9349C3.68843 10.834 3.97478 10.7788 4.28564 10.7705C4.32353 10.7906 4.39099 10.8291 4.50029 10.9004C4.72269 11.0453 4.97904 11.2107 5.26243 11.3916C5.58188 11.5953 5.99344 11.7793 6.48515 11.938C6.98785 12.1005 7.50054 12.1831 8.00943 12.1831C8.51832 12.1831 9.03116 12.1005 9.53357 11.9381C10.0257 11.7791 10.4371 11.5953 10.757 11.3914C11.047 11.206 11.2962 11.0454 11.5186 10.9004C11.6279 10.8292 11.6953 10.7906 11.7332 10.7705C12.0442 10.7788 12.3306 10.834 12.5855 10.9349C12.8609 11.0439 13.0947 11.1894 13.2802 11.3669C13.4785 11.5566 13.6582 11.7922 13.8144 12.0672C13.9782 12.3552 14.1104 12.6545 14.207 12.9563C14.308 13.2719 14.3929 13.6198 14.4594 13.9903C14.5267 14.3665 14.5723 14.7201 14.5946 15.0412V15.0415C14.6176 15.3681 14.6291 15.7095 14.6292 16.0565C14.6291 16.7217 14.4412 17.224 14.0546 17.5919Z"/>
</mask>
<path d="M15.6738 14.9659C15.6489 14.6061 15.5984 14.2137 15.5242 13.7993C15.4493 13.3819 15.3528 12.9872 15.2373 12.6265C15.1179 12.2536 14.9557 11.8855 14.755 11.5326C14.547 11.1664 14.3025 10.8475 14.0281 10.5851C13.7412 10.3106 13.3899 10.0899 12.9837 9.92892C12.5789 9.76877 12.1303 9.68764 11.6504 9.68764C11.4619 9.68764 11.2797 9.76497 10.9277 9.99413C10.7111 10.1354 10.4577 10.2988 10.1749 10.4795C9.93302 10.6336 9.6054 10.778 9.20074 10.9087C8.80594 11.0364 8.40508 11.1012 8.00929 11.1012C7.61378 11.1012 7.21292 11.0364 6.81784 10.9087C6.4136 10.7781 6.08584 10.6337 5.84442 10.4796C5.56427 10.3006 5.31074 10.1372 5.09088 9.99399C4.73917 9.76483 4.55691 9.6875 4.36846 9.6875C3.88844 9.6875 3.43997 9.76877 3.03531 9.92906C2.62938 10.0898 2.27796 10.3105 1.99077 10.5853C1.71639 10.8478 1.47187 11.1666 1.26398 11.5326C1.06355 11.8855 0.901291 12.2535 0.78185 12.6266C0.666494 12.9873 0.570011 13.3819 0.495079 13.7993C0.42071 14.2132 0.370427 14.6057 0.345496 14.9663C0.320989 15.3188 0.308594 15.6857 0.308594 16.0565C0.308594 17.0202 0.614943 17.8003 1.21905 18.3757C1.81569 18.9435 2.60501 19.2314 3.56519 19.2314H12.4545C13.4144 19.2314 14.2037 18.9435 14.8005 18.3757C15.4048 17.8007 15.7111 17.0203 15.7111 16.0563C15.711 15.6843 15.6984 15.3174 15.6738 14.9659ZM14.0546 17.5919C13.6603 17.9671 13.1369 18.1495 12.4544 18.1495H3.56519C2.88249 18.1495 2.35909 17.9671 1.96499 17.592C1.57836 17.224 1.39046 16.7216 1.39046 16.0565C1.39046 15.7105 1.40187 15.369 1.42469 15.0411C1.44694 14.7194 1.49244 14.366 1.55991 13.9905C1.62653 13.6196 1.71132 13.2716 1.81217 12.9565C1.90893 12.6544 2.04091 12.3552 2.20458 12.067C2.36078 11.7924 2.5405 11.5567 2.73882 11.3669C2.92432 11.1892 3.15813 11.0439 3.43363 10.9349C3.68843 10.834 3.97478 10.7788 4.28564 10.7705C4.32353 10.7906 4.39099 10.8291 4.50029 10.9004C4.72269 11.0453 4.97904 11.2107 5.26243 11.3916C5.58188 11.5953 5.99344 11.7793 6.48515 11.938C6.98785 12.1005 7.50054 12.1831 8.00943 12.1831C8.51832 12.1831 9.03116 12.1005 9.53357 11.9381C10.0257 11.7791 10.4371 11.5953 10.757 11.3914C11.047 11.206 11.2962 11.0454 11.5186 10.9004C11.6279 10.8292 11.6953 10.7906 11.7332 10.7705C12.0442 10.7788 12.3306 10.834 12.5855 10.9349C12.8609 11.0439 13.0947 11.1894 13.2802 11.3669C13.4785 11.5566 13.6582 11.7922 13.8144 12.0672C13.9782 12.3552 14.1104 12.6545 14.207 12.9563C14.308 13.2719 14.3929 13.6198 14.4594 13.9903C14.5267 14.3665 14.5723 14.7201 14.5946 15.0412V15.0415C14.6176 15.3681 14.6291 15.7095 14.6292 16.0565C14.6291 16.7217 14.4412 17.224 14.0546 17.5919Z" fill="#6D7A8A"/>
<path d="M15.6738 14.9659C15.6489 14.6061 15.5984 14.2137 15.5242 13.7993C15.4493 13.3819 15.3528 12.9872 15.2373 12.6265C15.1179 12.2536 14.9557 11.8855 14.755 11.5326C14.547 11.1664 14.3025 10.8475 14.0281 10.5851C13.7412 10.3106 13.3899 10.0899 12.9837 9.92892C12.5789 9.76877 12.1303 9.68764 11.6504 9.68764C11.4619 9.68764 11.2797 9.76497 10.9277 9.99413C10.7111 10.1354 10.4577 10.2988 10.1749 10.4795C9.93302 10.6336 9.6054 10.778 9.20074 10.9087C8.80594 11.0364 8.40508 11.1012 8.00929 11.1012C7.61378 11.1012 7.21292 11.0364 6.81784 10.9087C6.4136 10.7781 6.08584 10.6337 5.84442 10.4796C5.56427 10.3006 5.31074 10.1372 5.09088 9.99399C4.73917 9.76483 4.55691 9.6875 4.36846 9.6875C3.88844 9.6875 3.43997 9.76877 3.03531 9.92906C2.62938 10.0898 2.27796 10.3105 1.99077 10.5853C1.71639 10.8478 1.47187 11.1666 1.26398 11.5326C1.06355 11.8855 0.901291 12.2535 0.78185 12.6266C0.666494 12.9873 0.570011 13.3819 0.495079 13.7993C0.42071 14.2132 0.370427 14.6057 0.345496 14.9663C0.320989 15.3188 0.308594 15.6857 0.308594 16.0565C0.308594 17.0202 0.614943 17.8003 1.21905 18.3757C1.81569 18.9435 2.60501 19.2314 3.56519 19.2314H12.4545C13.4144 19.2314 14.2037 18.9435 14.8005 18.3757C15.4048 17.8007 15.7111 17.0203 15.7111 16.0563C15.711 15.6843 15.6984 15.3174 15.6738 14.9659ZM14.0546 17.5919C13.6603 17.9671 13.1369 18.1495 12.4544 18.1495H3.56519C2.88249 18.1495 2.35909 17.9671 1.96499 17.592C1.57836 17.224 1.39046 16.7216 1.39046 16.0565C1.39046 15.7105 1.40187 15.369 1.42469 15.0411C1.44694 14.7194 1.49244 14.366 1.55991 13.9905C1.62653 13.6196 1.71132 13.2716 1.81217 12.9565C1.90893 12.6544 2.04091 12.3552 2.20458 12.067C2.36078 11.7924 2.5405 11.5567 2.73882 11.3669C2.92432 11.1892 3.15813 11.0439 3.43363 10.9349C3.68843 10.834 3.97478 10.7788 4.28564 10.7705C4.32353 10.7906 4.39099 10.8291 4.50029 10.9004C4.72269 11.0453 4.97904 11.2107 5.26243 11.3916C5.58188 11.5953 5.99344 11.7793 6.48515 11.938C6.98785 12.1005 7.50054 12.1831 8.00943 12.1831C8.51832 12.1831 9.03116 12.1005 9.53357 11.9381C10.0257 11.7791 10.4371 11.5953 10.757 11.3914C11.047 11.206 11.2962 11.0454 11.5186 10.9004C11.6279 10.8292 11.6953 10.7906 11.7332 10.7705C12.0442 10.7788 12.3306 10.834 12.5855 10.9349C12.8609 11.0439 13.0947 11.1894 13.2802 11.3669C13.4785 11.5566 13.6582 11.7922 13.8144 12.0672C13.9782 12.3552 14.1104 12.6545 14.207 12.9563C14.308 13.2719 14.3929 13.6198 14.4594 13.9903C14.5267 14.3665 14.5723 14.7201 14.5946 15.0412V15.0415C14.6176 15.3681 14.6291 15.7095 14.6292 16.0565C14.6291 16.7217 14.4412 17.224 14.0546 17.5919Z" stroke="#6D7A8A" stroke-width="0.4" mask="url(#path-2-outside-2)"/>
</svg>
