<?xml version="1.0" encoding="UTF-8"?>
<!DOCTYPE svg PUBLIC "-//W3C//DTD SVG 1.1//EN" "http://www.w3.org/Graphics/SVG/1.1/DTD/svg11.dtd">
<!-- Creator: CorelDRAW 2019 (64-Bit) -->
<svg xmlns="http://www.w3.org/2000/svg" xml:space="preserve" width="54px" height="89px" version="1.1" style="shape-rendering:geometricPrecision; text-rendering:geometricPrecision; image-rendering:optimizeQuality; fill-rule:evenodd; clip-rule:evenodd"
viewBox="0 0 8.76 14.37"
 xmlns:xlink="http://www.w3.org/1999/xlink">
 <defs>
  <style type="text/css">
   <![CDATA[
    .fil0 {fill:#E41A4C;fill-rule:nonzero}
   ]]>
  </style>
 </defs>
 <g id="Слой_x0020_1">
  <metadata id="CorelCorpID_0Corel-Layer"/>
  <path class="fil0" d="M0.52 2.47c-0.6,-0.48 -0.69,-1.35 -0.21,-1.95 0.48,-0.6 1.35,-0.69 1.95,-0.21l5.6 4.49c0.08,0.06 0.15,0.12 0.21,0.19 0.43,0.43 0.66,0.99 0.69,1.56 0.03,0.56 -0.15,1.14 -0.53,1.62l0 0c-0.05,0.07 -0.12,0.14 -0.19,0.21l-5.68 5.59c-0.55,0.54 -1.42,0.53 -1.96,-0.01 -0.54,-0.55 -0.53,-1.43 0.01,-1.96l5.39 -5.3 -5.28 -4.23z"/>
 </g>
</svg>
