<?xml version="1.0" encoding="UTF-8"?>
<!--Generator: Apple Native CoreSVG 175.5-->
<!DOCTYPE svg
PUBLIC "-//W3C//DTD SVG 1.1//EN"
       "http://www.w3.org/Graphics/SVG/1.1/DTD/svg11.dtd">
<svg version="1.1" xmlns="http://www.w3.org/2000/svg" xmlns:xlink="http://www.w3.org/1999/xlink" width="19.082" height="19.2676">
 <g>
  <rect height="19.2676" opacity="0" width="19.082" x="0" y="0"/>
  <path d="M0 7.79297C0 12.0898 3.49609 15.5859 7.79297 15.5859C9.49219 15.5859 11.0449 15.0391 12.3242 14.1211L17.1289 18.9355C17.3535 19.1602 17.6465 19.2676 17.959 19.2676C18.623 19.2676 19.082 18.7695 19.082 18.1152C19.082 17.8027 18.9648 17.5195 18.7598 17.3145L13.9844 12.5098C14.9902 11.2012 15.5859 9.57031 15.5859 7.79297C15.5859 3.49609 12.0898 0 7.79297 0C3.49609 0 0 3.49609 0 7.79297ZM1.66992 7.79297C1.66992 4.41406 4.41406 1.66992 7.79297 1.66992C11.1719 1.66992 13.916 4.41406 13.916 7.79297C13.916 11.1719 11.1719 13.916 7.79297 13.916C4.41406 13.916 1.66992 11.1719 1.66992 7.79297ZM5.2832 8.50586L10.3027 8.50586C10.6934 8.50586 11.0156 8.18359 11.0156 7.79297C11.0156 7.40234 10.6934 7.07031 10.3027 7.07031L5.2832 7.07031C4.89258 7.07031 4.56055 7.40234 4.56055 7.79297C4.56055 8.18359 4.89258 8.50586 5.2832 8.50586Z" fill="#ffffff" fill-opacity="0.85"/>
 </g>
</svg>
