<?xml version="1.0" encoding="UTF-8"?>
<!DOCTYPE svg PUBLIC "-//W3C//DTD SVG 1.1//EN" "http://www.w3.org/Graphics/SVG/1.1/DTD/svg11.dtd">
<svg xmlns="http://www.w3.org/2000/svg" xml:space="preserve" width="120px" height="122px" version="1.1" style="shape-rendering:geometricPrecision; text-rendering:geometricPrecision; image-rendering:optimizeQuality; fill-rule:nonzero; clip-rule:evenodd" viewBox="0 0 14.66 14.93" xmlns:xlink="http://www.w3.org/1999/xlink">
 <g>
  <path fill="#6D7A8A" d="M14.66 7.46c0,2.06 -0.82,3.93 -2.15,5.28 -1.32,1.35 -3.16,2.19 -5.18,2.19 -2.02,0 -3.86,-0.84 -5.18,-2.19 -1.33,-1.35 -2.15,-3.22 -2.15,-5.28 0,-2.06 0.82,-3.92 2.15,-5.27 1.32,-1.35 3.16,-2.19 5.18,-2.19 2.02,0 3.86,0.84 5.18,2.19 1.33,1.35 2.15,3.21 2.15,5.27zm-4.28 -2.67c-0.1,-0.1 -0.23,-0.16 -0.38,-0.16l-5.34 0c-0.15,0 -0.27,0.06 -0.38,0.16 -0.1,0.11 -0.16,0.24 -0.16,0.39l0 3.7c0,0.15 0.06,0.27 0.16,0.38 0.11,0.11 0.23,0.16 0.38,0.16l1.82 0c0,0.09 -0.02,0.18 -0.06,0.27 -0.03,0.09 -0.07,0.17 -0.11,0.23 -0.03,0.07 -0.05,0.12 -0.05,0.15 0,0.06 0.02,0.11 0.06,0.16 0.05,0.04 0.1,0.06 0.16,0.06l1.71 0c0.05,0 0.1,-0.02 0.15,-0.06 0.04,-0.05 0.06,-0.1 0.06,-0.16 0,-0.03 -0.02,-0.07 -0.05,-0.14 -0.04,-0.07 -0.08,-0.15 -0.11,-0.24 -0.04,-0.1 -0.05,-0.18 -0.05,-0.27l1.81 0c0.15,0 0.28,-0.05 0.38,-0.16 0.11,-0.1 0.16,-0.23 0.16,-0.38l0 -3.7c0,-0.15 -0.05,-0.28 -0.16,-0.39zm-0.27 4.05c0,0.03 -0.01,0.05 -0.03,0.07 -0.02,0.02 -0.05,0.03 -0.08,0.03l-5.34 0c-0.03,0 -0.06,-0.01 -0.08,-0.03 -0.02,-0.02 -0.03,-0.04 -0.03,-0.07l0 -3.66c0,-0.03 0.01,-0.06 0.03,-0.08 0.02,-0.02 0.05,-0.03 0.08,-0.03l5.34 0c0.03,0 0.06,0.01 0.08,0.03 0.02,0.02 0.03,0.05 0.03,0.08l0 3.66zm2.13 3.63c1.26,-1.28 2.04,-3.05 2.04,-5.01 0,-1.95 -0.78,-3.72 -2.04,-5 -1.25,-1.29 -2.99,-2.08 -4.91,-2.08 -1.92,0 -3.65,0.79 -4.91,2.08 -1.26,1.28 -2.04,3.05 -2.04,5 0,1.96 0.78,3.73 2.04,5.01 1.26,1.28 2.99,2.07 4.91,2.07 1.92,0 3.66,-0.79 4.91,-2.07z"/>
 </g>
</svg>
