<?xml version="1.0" encoding="UTF-8"?>
<!DOCTYPE svg PUBLIC "-//W3C//DTD SVG 1.1//EN" "http://www.w3.org/Graphics/SVG/1.1/DTD/svg11.dtd">
<svg xmlns="http://www.w3.org/2000/svg" xml:space="preserve" width="24px" height="24px" version="1.1" style="shape-rendering:geometricPrecision; text-rendering:geometricPrecision; image-rendering:optimizeQuality; fill-rule:nonzero; clip-rule:evenodd" viewBox="0 0 0.57 0.57" xmlns:xlink="http://www.w3.org/1999/xlink">
 <g>
  <path fill="#6D7A8A" d="M0.07 0l0.42 0c0.02,0 0.04,0.01 0.05,0.02 0.02,0.02 0.03,0.03 0.03,0.05l0 0.42c0,0.02 -0.01,0.04 -0.03,0.05 -0.01,0.02 -0.03,0.03 -0.05,0.03l-0.42 0c-0.02,0 -0.03,-0.01 -0.05,-0.03 -0.01,-0.01 -0.02,-0.03 -0.02,-0.05l0 -0.42c0,-0.02 0.01,-0.03 0.02,-0.05 0.02,-0.01 0.03,-0.02 0.05,-0.02zm0.42 0.05l-0.42 0c0,0 -0.01,0.01 -0.01,0.01 0,0 -0.01,0.01 -0.01,0.01l0 0.42c0,0.01 0.01,0.01 0.01,0.02 0,0 0.01,0 0.01,0l0.42 0c0.01,0 0.01,0 0.02,0 0,-0.01 0,-0.01 0,-0.02l0 -0.42c0,0 0,-0.01 0,-0.01 -0.01,0 -0.01,-0.01 -0.02,-0.01z"/>
 </g>
</svg>
