<?xml version="1.0" encoding="UTF-8"?>
<!DOCTYPE svg PUBLIC "-//W3C//DTD SVG 1.1//EN" "http://www.w3.org/Graphics/SVG/1.1/DTD/svg11.dtd">
<svg xmlns="http://www.w3.org/2000/svg" xml:space="preserve" width="500px" height="500px" version="1.1" style="shape-rendering:geometricPrecision; text-rendering:geometricPrecision; image-rendering:optimizeQuality; fill-rule:nonzero; clip-rule:evenodd" viewBox="0 0 241.85 241.85" xmlns:xlink="http://www.w3.org/1999/xlink">
 <g>
  <path fill="#F7A5BD" d="M149.14 65.23l0 108.08 -128.99 0c-2.22,0 -4.03,-1.8 -4.03,-4.03l0 -107.72 56.43 -51.76 5.12 -4.68c1.68,-1.48 4.21,-1.48 5.89,0l65.58 60.11z"/>
  <path fill="#F2E4E6" d="M133.02 65.23l0 108.09 -112.87 0c-2.22,0 -4.03,-1.81 -4.03,-4.04l0 -107.71 56.43 -51.77 60.47 55.43z"/>
  <path fill="#F7A5BC" d="M145.11 68.49l80.62 0c6.67,0 12.09,5.42 12.09,12.1l0 145.13c0,6.68 -5.42,12.09 -12.1,12.09l-80.61 0c-6.68,0 -12.09,-5.41 -12.09,-12.09l0 -145.13c0,-6.68 5.41,-12.1 12.09,-12.1l0 0z"/>
  <path fill="#F4D4DB" d="M145.11 68.49l68.52 0c6.68,0 12.1,5.42 12.1,12.1l-0.01 145.13c0,6.68 -5.41,12.09 -12.09,12.09l-68.52 0c-6.68,0 -12.09,-5.41 -12.09,-12.09l0 -145.13c0,-6.68 5.41,-12.1 12.09,-12.1l0 0z"/>
  <polygon fill="#F7A5BC" points="237.82,92.69 225.73,92.69 225.73,209.6 237.82,209.6 "/>
  <polygon fill="white" points="225.72,92.69 133.02,92.69 133.02,209.6 225.72,209.6 "/>
  <polygon fill="#F4D4DB" points="133.02,148.55 163.31,92.69 199.41,92.69 136.02,209.6 133.02,209.6 "/>
  <polygon fill="#F4D4DB" points="225.72,92.69 215.02,92.69 151.63,209.6 187.74,209.6 225.72,139.54 "/>
  <polygon fill="#F4D4DB" points="202.06,209.6 225.72,165.95 225.72,209.6 "/>
  <polygon fill="#F4D4DB" points="152.69,92.69 133.02,92.69 133.02,128.96 "/>
  <path fill="#FA7F9E" d="M80.62 116.87l0 56.44 -40.3 0 0 -56.44c0,-2.23 1.8,-4.03 4.03,-4.03l32.24 0c2.23,0 4.03,1.8 4.03,4.03z"/>
  <path fill="#F2E4E6" d="M68.53 116.87l0 56.44 -28.21 0 0 -56.44c0,-2.23 1.8,-4.03 4.03,-4.03l20.15 0c2.23,0 4.03,1.8 4.03,4.03z"/>
  <path fill="white" d="M16.12 169.28c0,2.23 1.81,4.03 4.03,4.03l12.1 0c-2.23,0 -4.03,-1.8 -4.03,-4.03l0 -107.72 56.43 -51.76 2.01 -1.84 -3.1 -2.82c-1.68,-1.49 -4.2,-1.49 -5.88,0l-5.13 4.66 -56.43 51.76 0 107.72z"/>
  <path fill="#E41A4C" d="M219.62 139.09c-18.9,-18.87 -49.5,-18.87 -68.4,0 -1.53,1.58 -1.51,4.1 0.05,5.65 1.55,1.56 4.06,1.58 5.65,0.05 15.75,-15.72 41.25,-15.72 57,0 1.58,1.53 4.09,1.51 5.65,-0.05 1.55,-1.55 1.58,-4.07 0.05,-5.65l0 0zm-45.6 22.8c-1.52,1.58 -1.5,4.1 0.05,5.65 1.56,1.56 4.07,1.58 5.65,0.05 3.15,-3.15 8.25,-3.15 11.4,0 1.58,1.53 4.1,1.51 5.65,-0.05 1.56,-1.55 1.58,-4.07 0.05,-5.65 -6.3,-6.29 -16.5,-6.29 -22.8,0zm-11.41 -11.4c-1.04,1.01 -1.47,2.51 -1.1,3.92 0.37,1.41 1.47,2.51 2.88,2.88 1.41,0.37 2.91,-0.05 3.92,-1.1 9.45,-9.43 24.76,-9.43 34.21,0 1.01,1.05 2.51,1.47 3.92,1.1 1.41,-0.37 2.51,-1.47 2.88,-2.88 0.37,-1.41 -0.06,-2.9 -1.1,-3.92 -12.61,-12.57 -33,-12.57 -45.61,0l0 0zm63.12 -86.02l-71.47 0 -68.08 -62.4c-3.23,-2.79 -8.03,-2.75 -11.23,0.08l-42.7 39.16 0 -17.16c0,-2.22 -1.81,-4.03 -4.03,-4.03 -2.23,0 -4.03,1.81 -4.03,4.03l0 24.55 -22.88 20.96c-1.64,1.51 -1.75,4.06 -0.25,5.7 1.51,1.64 4.06,1.75 5.7,0.25l24.3 -22.29 49.24 -45.14c0.23,-0.19 0.4,-0.18 0.54,-0.08l61.76 56.62c-7.82,1.23 -13.58,7.96 -13.61,15.87l0 88.69 -44.34 0 0 -52.4c0,-4.46 -3.61,-8.07 -8.06,-8.07l-32.25 0c-4.45,0 -8.06,3.61 -8.06,8.07l0 52.4 -16.12 0 0 -32.25c0,-2.22 -1.81,-4.03 -4.04,-4.03 -2.22,0 -4.03,1.81 -4.03,4.03l0 32.25c0,4.46 3.61,8.07 8.07,8.07l108.83 0 0 48.37c0,8.91 7.22,16.13 16.12,16.13l80.62 0c8.9,0 16.12,-7.22 16.12,-16.13l0 -145.13c0,-8.9 -7.22,-16.12 -16.12,-16.12l0 0zm-181.39 52.41l32.25 0 0 52.4 -32.25 0 0 -52.4zm92.71 -20.16l96.74 0 0 108.85 -96.74 0 0 -108.85zm8.06 -24.19l80.62 0c4.45,0 8.06,3.61 8.06,8.06l0 8.07 -96.74 0 0 -8.07c0,-4.45 3.61,-8.06 8.06,-8.06l0 0zm80.62 161.26l-80.62 0c-4.45,0 -8.06,-3.61 -8.06,-8.07l0 -12.09 96.74 0 0 12.09c0,4.46 -3.61,8.07 -8.06,8.07zm-205.57 -145.13l0 -0.01 0 -4.03c0,-2.22 -1.81,-4.03 -4.04,-4.03 -2.22,0 -4.03,1.81 -4.03,4.03l0 4.03 0 16.13 0 36.28 0 28.22 8.07 0 0 -28.22 0 -52.4z"/>
 </g>
</svg>
