<?xml version="1.0" encoding="UTF-8"?>
<!DOCTYPE svg PUBLIC "-//W3C//DTD SVG 1.1//EN" "http://www.w3.org/Graphics/SVG/1.1/DTD/svg11.dtd">
<svg xmlns="http://www.w3.org/2000/svg" xml:space="preserve" width="120px" height="122px" version="1.1" style="shape-rendering:geometricPrecision; text-rendering:geometricPrecision; image-rendering:optimizeQuality; fill-rule:nonzero; clip-rule:evenodd" viewBox="0 0 13.35 13.59" xmlns:xlink="http://www.w3.org/1999/xlink">
 <g>
  <path fill="#E41A4C" d="M13.35 6.8c0,1.87 -0.75,3.57 -1.95,4.8 -1.21,1.23 -2.88,1.99 -4.72,1.99 -1.85,0 -3.52,-0.76 -4.73,-1.99 -1.2,-1.23 -1.95,-2.93 -1.95,-4.8 0,-1.88 0.75,-3.58 1.95,-4.81 1.21,-1.23 2.88,-1.99 4.73,-1.99 1.84,0 3.51,0.76 4.72,1.99 1.2,1.23 1.95,2.93 1.95,4.81zm-10.08 3.59c-0.12,0 -0.23,-0.11 -0.23,-0.23 0,-0.13 0.11,-0.24 0.23,-0.24l0.85 0 0 -1.85c0,-0.39 0.15,-0.76 0.42,-1.04 0.28,-0.28 0.64,-0.44 1.03,-0.44l0.02 0 3.2 -3.2c0.12,-0.12 0.28,-0.19 0.45,-0.19 0.17,0 0.34,0.07 0.46,0.19l0.42 0.43c0.25,0.25 0.25,0.65 0,0.9l-2.56 2.56 0.03 0.04c0.13,0.23 0.2,0.48 0.2,0.75l0 1.85 0.84 0c0.13,0 0.24,0.11 0.24,0.24 0,0.12 -0.11,0.23 -0.24,0.23l-5.36 0 0 0zm1.31 -0.47l2.74 0 0 -1.19 -0.06 0.01c0,0 -0.01,0 -0.01,0l-2.67 0 0 1.18zm1.02 -2.87c-0.56,0 -1.02,0.46 -1.02,1.02l0 0.17 2.67 0c0,0 0.01,0 0.01,0l0.06 0 0 -0.17c0,-0.56 -0.45,-1.02 -1.01,-1.02l-0.71 0zm0.66 -0.47l0.13 0.01c0.3,0.01 0.59,0.12 0.83,0.31l0.04 0.03 0.16 -0.16 -0.17 -1.18 -0.99 0.99zm1.5 -1.5l0.17 1.17 0.65 -0.64 -0.17 -1.18 -0.65 0.65zm1.48 -1.41c-0.04,0 -0.09,0.02 -0.12,0.05l-0.2 0.2 0.17 1.17 0.7 -0.7c0.03,-0.03 0.05,-0.07 0.05,-0.12 0,-0.05 -0.02,-0.09 -0.05,-0.13l-0.42 -0.42c-0.04,-0.03 -0.08,-0.05 -0.13,-0.05zm1.91 7.69c1.14,-1.17 1.85,-2.78 1.85,-4.56 0,-1.79 -0.71,-3.4 -1.85,-4.56 -1.15,-1.17 -2.73,-1.89 -4.47,-1.89 -1.75,0 -3.33,0.72 -4.48,1.89 -1.14,1.16 -1.85,2.77 -1.85,4.56 0,1.78 0.71,3.39 1.85,4.56 1.15,1.16 2.73,1.88 4.48,1.88 1.74,0 3.32,-0.72 4.47,-1.88z"/>
 </g>
</svg>
