<?xml version="1.0" encoding="UTF-8"?>
<svg xmlns="http://www.w3.org/2000/svg" width="26" height="26" viewBox="0 0 26 26">
  <path d="M 4.374159 25 C 1.959623 25 0 23.016405 0 20.583597 L 0 10.473817 C 0 8.04101 1.959623 6.057413 4.374159 6.057413 L 6.413767 6.057413 L 11.752741 1.262461 C 11.942704 1.090851 12.187657 1 12.442608 1 C 12.697559 1 12.942513 1.0959 13.132477 1.262461 L 18.471449 6.052366 L 21.625843 6.052366 C 23.115557 6.052366 24.330322 7.278864 24.330322 8.782965 L 24.330322 11.316719 C 25.335129 11.735647 26 12.735016 26 13.840379 L 26 17.211988 C 26 18.31735 25.335129 19.311672 24.330322 19.735647 L 24.330322 22.269402 C 24.330322 23.773502 23.115557 25 21.625843 25 L 4.374159 25 Z M 4.374159 8.147003 C 3.104403 8.147003 2.069602 9.191798 2.069602 10.473817 L 2.069602 20.583597 C 2.069602 21.865616 3.104403 22.910412 4.374159 22.910412 L 21.620844 22.910412 C 21.970778 22.910412 22.255722 22.622713 22.255722 22.269402 L 22.255722 19.942587 L 19.951166 19.942587 C 17.541628 19.942587 15.577005 17.964039 15.577005 15.526183 C 15.577005 13.088328 17.536631 11.109779 19.951166 11.109779 L 22.255722 11.109779 L 22.255722 8.782965 C 22.255722 8.429653 21.970778 8.141956 21.620844 8.141956 L 4.374159 8.141956 L 4.374159 8.147003 Z M 19.951166 13.199369 C 18.68141 13.199369 17.646608 14.244164 17.646608 15.526183 C 17.646608 16.808202 18.68141 17.852997 19.951166 17.852997 L 23.290522 17.852997 C 23.640455 17.852997 23.9254 17.5653 23.9254 17.211988 L 23.9254 13.840379 C 23.9254 13.487066 23.640455 13.199369 23.290522 13.199369 L 19.951166 13.199369 Z M 15.352049 6.057413 L 12.43761 3.442902 L 9.52317 6.057413 L 15.352049 6.057413 Z" fill="#6D7A8A" fill-rule="nonzero"/>
  <path d="M 20.703707 16.999878 C 21.501451 16.999878 22.148151 16.328305 22.148151 15.499878 C 22.148151 14.671451 21.501451 13.999878 20.703707 13.999878 C 19.905962 13.999878 19.259262 14.671451 19.259262 15.499878 C 19.259262 16.328305 19.905962 16.999878 20.703707 16.999878 Z" fill="#6D7A8A" fill-rule="nonzero"/>
</svg>
