<svg width="26" height="26" viewBox="0 0 26 26" fill="none" xmlns="http://www.w3.org/2000/svg">
<path fill-rule="evenodd" clip-rule="evenodd" d="M24 4.7H2C1.83431 4.7 1.7 4.83431 1.7 5C1.7 5.16569 1.83431 5.3 2 5.3H24C24.1657 5.3 24.3 5.16569 24.3 5C24.3 4.83431 24.1657 4.7 24 4.7ZM2 3C0.895431 3 0 3.89543 0 5C0 6.10457 0.89543 7 2 7H24C25.1046 7 26 6.10457 26 5C26 3.89543 25.1046 3 24 3H2ZM24 12.6199H2C1.83431 12.6199 1.7 12.7542 1.7 12.9199C1.7 13.0856 1.83431 13.2199 2 13.2199H24C24.1657 13.2199 24.3 13.0856 24.3 12.9199C24.3 12.7542 24.1657 12.6199 24 12.6199ZM2 10.9199C0.895431 10.9199 0 11.8154 0 12.9199C0 14.0245 0.89543 14.9199 2 14.9199H24C25.1046 14.9199 26 14.0245 26 12.9199C26 11.8154 25.1046 10.9199 24 10.9199H2ZM2 20.5398H24C24.1657 20.5398 24.3 20.6742 24.3 20.8398C24.3 21.0055 24.1657 21.1398 24 21.1398H2C1.83431 21.1398 1.7 21.0055 1.7 20.8398C1.7 20.6742 1.83431 20.5398 2 20.5398ZM0 20.8398C0 19.7353 0.895431 18.8398 2 18.8398H24C25.1046 18.8398 26 19.7353 26 20.8398C26 21.9444 25.1046 22.8398 24 22.8398H2C0.89543 22.8398 0 21.9444 0 20.8398Z" fill="#6D7A8A"/>
</svg>
